<?xml version="1.0" encoding="UTF-8" standalone="no"?><svg xmlns="http://www.w3.org/2000/svg" xmlns:xlink="http://www.w3.org/1999/xlink" contentScriptType="application/ecmascript" contentStyleType="text/css" height="191px" preserveAspectRatio="none" style="width:234px;height:191px;" version="1.1" viewBox="0 0 234 191" width="234px" zoomAndPan="magnify"><defs><filter height="300%" id="fdzqbpoma8k7z" width="300%" x="-1" y="-1"><feGaussianBlur result="blurOut" stdDeviation="2.0"/><feColorMatrix in="blurOut" result="blurOut2" type="matrix" values="0 0 0 0 0 0 0 0 0 0 0 0 0 0 0 0 0 0 .4 0"/><feOffset dx="4.0" dy="4.0" in="blurOut2" result="blurOut3"/><feBlend in="SourceGraphic" in2="blurOut3" mode="normal"/></filter></defs><g><!--cluster FMS.provided--><polygon fill="#FFFFFF" filter="url(#fdzqbpoma8k7z)" points="22,24,127,24,134,47.6094,212,47.6094,212,179,22,179,22,24" style="stroke: #000000; stroke-width: 1.5;"/><line style="stroke: #000000; stroke-width: 1.5;" x1="22" x2="134" y1="47.6094" y2="47.6094"/><text fill="#000000" font-family="sans-serif" font-size="14" font-weight="bold" lengthAdjust="spacingAndGlyphs" textLength="99" x="26" y="40.5332">FMS.provided</text><!--class FMS.provided.DateTime--><rect fill="#FEFECE" filter="url(#fdzqbpoma8k7z)" height="103.3438" id="FMS.provided.DateTime" style="stroke: #A80036; stroke-width: 1.5;" width="157" x="38.5" y="60"/><ellipse cx="85.75" cy="76" fill="#ADD1B2" rx="11" ry="11" style="stroke: #A80036; stroke-width: 1.0;"/><path d="M88.5156,71.875 Q88.6719,71.6563 88.8594,71.5469 Q89.0469,71.4375 89.2656,71.4375 Q89.6406,71.4375 89.875,71.6953 Q90.1094,71.9531 90.1094,72.5625 L90.1094,74.0156 Q90.1094,74.625 89.875,74.8906 Q89.6406,75.1563 89.2656,75.1563 Q88.9219,75.1563 88.7188,74.9531 Q88.5156,74.7656 88.4063,74.25 Q88.3594,73.8906 88.1719,73.7031 Q87.8438,73.3281 87.2344,73.1094 Q86.625,72.8906 86,72.8906 Q85.2344,72.8906 84.6016,73.2188 Q83.9688,73.5469 83.4766,74.2969 Q82.9844,75.0469 82.9844,76.0781 L82.9844,77.1719 Q82.9844,78.4063 83.875,79.2266 Q84.7656,80.0469 86.3594,80.0469 Q87.2969,80.0469 87.9531,79.7969 Q88.3438,79.6406 88.7656,79.2031 Q89.0313,78.9375 89.1797,78.8594 Q89.3281,78.7813 89.5313,78.7813 Q89.8594,78.7813 90.1172,79.0391 Q90.375,79.2969 90.375,79.6406 Q90.375,79.9844 90.0313,80.3906 Q89.5313,80.9688 88.7344,81.2969 Q87.6563,81.75 86.3594,81.75 Q84.8438,81.75 83.6406,81.125 Q82.6563,80.625 81.9688,79.5547 Q81.2813,78.4844 81.2813,77.2031 L81.2813,76.0469 Q81.2813,74.7188 81.8984,73.5703 Q82.5156,72.4219 83.6094,71.8047 Q84.7031,71.1875 85.9375,71.1875 Q86.6719,71.1875 87.3203,71.3516 Q87.9688,71.5156 88.5156,71.875 Z "/><text fill="#000000" font-family="sans-serif" font-size="12" lengthAdjust="spacingAndGlyphs" textLength="54" x="106.25" y="80.9102">DateTime</text><line style="stroke: #A80036; stroke-width: 1.5;" x1="39.5" x2="194.5" y1="92" y2="92"/><line style="stroke: #A80036; stroke-width: 1.5;" x1="39.5" x2="194.5" y1="100" y2="100"/><ellipse cx="49.5" cy="112.418" fill="#84BE84" rx="3" ry="3" style="stroke: #038048; stroke-width: 1.0;"/><text fill="#000000" font-family="sans-serif" font-size="11" lengthAdjust="spacingAndGlyphs" textLength="96" x="58.5" y="115.4189">DateTime(DateTime)</text><ellipse cx="49.5" cy="126.2539" fill="#84BE84" rx="3" ry="3" style="stroke: #038048; stroke-width: 1.0;"/><text fill="#000000" font-family="sans-serif" font-size="11" lengthAdjust="spacingAndGlyphs" textLength="131" x="58.5" y="129.2549">DateTime(int, int, int, int, int)</text><ellipse cx="49.5" cy="140.0898" fill="#84BE84" rx="3" ry="3" style="stroke: #038048; stroke-width: 1.0;"/><text fill="#000000" font-family="sans-serif" font-size="11" lengthAdjust="spacingAndGlyphs" textLength="123" x="58.5" y="143.0908">compareTo(DateTime): int</text><ellipse cx="49.5" cy="153.9258" fill="#84BE84" rx="3" ry="3" style="stroke: #038048; stroke-width: 1.0;"/><text fill="#000000" font-family="sans-serif" font-size="11" lengthAdjust="spacingAndGlyphs" textLength="82" x="58.5" y="156.9268">timestamp(): long</text><!--
@startuml

    namespace FMS.provided {
        class DateTime {
            +DateTime(DateTime)
            +DateTime(int, int, int, int, int)
            +compareTo(DateTime): int
            +timestamp(): long
        }
    }

@enduml

PlantUML version 1.2018.05(Sat May 05 22:00:17 CEST 2018)
(APACHE source distribution)
Java Runtime: Java(TM) SE Runtime Environment
JVM: Java HotSpot(TM) 64-Bit Server VM
Java Version: 10.0.1+10
Operating System: Windows 10
OS Version: 10.0
Default Encoding: Cp1252
Language: en
Country: US
--></g></svg>