<?xml version="1.0" encoding="UTF-8" standalone="no"?><svg xmlns="http://www.w3.org/2000/svg" xmlns:xlink="http://www.w3.org/1999/xlink" contentScriptType="application/ecmascript" contentStyleType="text/css" height="178px" preserveAspectRatio="none" style="width:240px;height:178px;" version="1.1" viewBox="0 0 240 178" width="240px" zoomAndPan="magnify"><defs><filter height="300%" id="f1my0x1rs6h7mg" width="300%" x="-1" y="-1"><feGaussianBlur result="blurOut" stdDeviation="2.0"/><feColorMatrix in="blurOut" result="blurOut2" type="matrix" values="0 0 0 0 0 0 0 0 0 0 0 0 0 0 0 0 0 0 .4 0"/><feOffset dx="4.0" dy="4.0" in="blurOut2" result="blurOut3"/><feBlend in="SourceGraphic" in2="blurOut3" mode="normal"/></filter></defs><g><!--cluster FMS.provided--><polygon fill="#FFFFFF" filter="url(#f1my0x1rs6h7mg)" points="22,24,127,24,134,47.6094,218,47.6094,218,166,22,166,22,24" style="stroke: #000000; stroke-width: 1.5;"/><line style="stroke: #000000; stroke-width: 1.5;" x1="22" x2="134" y1="47.6094" y2="47.6094"/><text fill="#000000" font-family="sans-serif" font-size="14" font-weight="bold" lengthAdjust="spacingAndGlyphs" textLength="99" x="26" y="40.5332">FMS.provided</text><!--class FMS.provided.Person--><rect fill="#FEFECE" filter="url(#f1my0x1rs6h7mg)" height="89.5078" id="FMS.provided.Person" style="stroke: #A80036; stroke-width: 1.5;" width="164" x="38" y="60"/><ellipse cx="95.75" cy="76" fill="#ADD1B2" rx="11" ry="11" style="stroke: #A80036; stroke-width: 1.0;"/><path d="M98.5156,71.875 Q98.6719,71.6563 98.8594,71.5469 Q99.0469,71.4375 99.2656,71.4375 Q99.6406,71.4375 99.875,71.6953 Q100.1094,71.9531 100.1094,72.5625 L100.1094,74.0156 Q100.1094,74.625 99.875,74.8906 Q99.6406,75.1563 99.2656,75.1563 Q98.9219,75.1563 98.7188,74.9531 Q98.5156,74.7656 98.4063,74.25 Q98.3594,73.8906 98.1719,73.7031 Q97.8438,73.3281 97.2344,73.1094 Q96.625,72.8906 96,72.8906 Q95.2344,72.8906 94.6016,73.2188 Q93.9688,73.5469 93.4766,74.2969 Q92.9844,75.0469 92.9844,76.0781 L92.9844,77.1719 Q92.9844,78.4063 93.875,79.2266 Q94.7656,80.0469 96.3594,80.0469 Q97.2969,80.0469 97.9531,79.7969 Q98.3438,79.6406 98.7656,79.2031 Q99.0313,78.9375 99.1797,78.8594 Q99.3281,78.7813 99.5313,78.7813 Q99.8594,78.7813 100.1172,79.0391 Q100.375,79.2969 100.375,79.6406 Q100.375,79.9844 100.0313,80.3906 Q99.5313,80.9688 98.7344,81.2969 Q97.6563,81.75 96.3594,81.75 Q94.8438,81.75 93.6406,81.125 Q92.6563,80.625 91.9688,79.5547 Q91.2813,78.4844 91.2813,77.2031 L91.2813,76.0469 Q91.2813,74.7188 91.8984,73.5703 Q92.5156,72.4219 93.6094,71.8047 Q94.7031,71.1875 95.9375,71.1875 Q96.6719,71.1875 97.3203,71.3516 Q97.9688,71.5156 98.5156,71.875 Z "/><text fill="#000000" font-family="sans-serif" font-size="12" lengthAdjust="spacingAndGlyphs" textLength="40" x="116.25" y="80.9102">Person</text><line style="stroke: #A80036; stroke-width: 1.5;" x1="39" x2="201" y1="92" y2="92"/><line style="stroke: #A80036; stroke-width: 1.5;" x1="39" x2="201" y1="100" y2="100"/><ellipse cx="49" cy="112.418" fill="#84BE84" rx="3" ry="3" style="stroke: #038048; stroke-width: 1.0;"/><text fill="#000000" font-family="sans-serif" font-size="11" lengthAdjust="spacingAndGlyphs" textLength="138" x="58" y="115.4189">Person(String, String, String)</text><ellipse cx="49" cy="126.2539" fill="#84BE84" rx="3" ry="3" style="stroke: #038048; stroke-width: 1.0;"/><text fill="#000000" font-family="sans-serif" font-size="11" lengthAdjust="spacingAndGlyphs" textLength="76" x="58" y="129.2549">Person(Person)</text><ellipse cx="49" cy="140.0898" fill="#84BE84" rx="3" ry="3" style="stroke: #038048; stroke-width: 1.0;"/><text fill="#000000" font-family="sans-serif" font-size="11" lengthAdjust="spacingAndGlyphs" textLength="113" x="58" y="143.0908">compareTo(Person): int</text><!--
@startuml

    namespace FMS.provided {
        class Person {
            +Person(String, String, String)
            +Person(Person)
            +compareTo(Person): int
        }
    }

@enduml

PlantUML version 1.2018.05(Sat May 05 22:00:17 CEST 2018)
(APACHE source distribution)
Java Runtime: Java(TM) SE Runtime Environment
JVM: Java HotSpot(TM) 64-Bit Server VM
Java Version: 10.0.1+10
Operating System: Windows 10
OS Version: 10.0
Default Encoding: Cp1252
Language: en
Country: US
--></g></svg>