<?xml version="1.0" encoding="UTF-8" standalone="no"?><svg xmlns="http://www.w3.org/2000/svg" xmlns:xlink="http://www.w3.org/1999/xlink" contentScriptType="application/ecmascript" contentStyleType="text/css" height="150px" preserveAspectRatio="none" style="width:194px;height:150px;" version="1.1" viewBox="0 0 194 150" width="194px" zoomAndPan="magnify"><defs><filter height="300%" id="f191mhnuxv9521" width="300%" x="-1" y="-1"><feGaussianBlur result="blurOut" stdDeviation="2.0"/><feColorMatrix in="blurOut" result="blurOut2" type="matrix" values="0 0 0 0 0 0 0 0 0 0 0 0 0 0 0 0 0 0 .4 0"/><feOffset dx="4.0" dy="4.0" in="blurOut2" result="blurOut3"/><feBlend in="SourceGraphic" in2="blurOut3" mode="normal"/></filter></defs><g><!--cluster FMS.provided--><polygon fill="#FFFFFF" filter="url(#f191mhnuxv9521)" points="22,24,127,24,134,47.6094,172,47.6094,172,138,22,138,22,24" style="stroke: #000000; stroke-width: 1.5;"/><line style="stroke: #000000; stroke-width: 1.5;" x1="22" x2="134" y1="47.6094" y2="47.6094"/><text fill="#000000" font-family="sans-serif" font-size="14" font-weight="bold" lengthAdjust="spacingAndGlyphs" textLength="99" x="26" y="40.5332">FMS.provided</text><!--class FMS.provided.Matcher--><rect fill="#FEFECE" filter="url(#f191mhnuxv9521)" height="61.8359" id="FMS.provided.Matcher" style="stroke: #A80036; stroke-width: 1.5;" width="117" x="38.5" y="60"/><ellipse cx="67.45" cy="76" fill="#B4A7E5" rx="11" ry="11" style="stroke: #A80036; stroke-width: 1.0;"/><path d="M68.4031,72.6406 L68.4031,79.2969 L70.1219,79.2969 Q70.7313,79.2969 70.9969,79.5313 Q71.2625,79.7656 71.2625,80.1563 Q71.2625,80.5313 70.9969,80.7656 Q70.7313,81 70.1219,81 L64.9813,81 Q64.3719,81 64.1063,80.7656 Q63.8406,80.5313 63.8406,80.1406 Q63.8406,79.7656 64.1063,79.5313 Q64.3719,79.2969 64.9813,79.2969 L66.7,79.2969 L66.7,72.6406 L64.9813,72.6406 Q64.3719,72.6406 64.1063,72.4063 Q63.8406,72.1719 63.8406,71.7813 Q63.8406,71.4063 64.1063,71.1719 Q64.3719,70.9375 64.9813,70.9375 L70.1219,70.9375 Q70.7313,70.9375 70.9969,71.1719 Q71.2625,71.4063 71.2625,71.7813 Q71.2625,72.1719 70.9969,72.4063 Q70.7313,72.6406 70.1219,72.6406 L68.4031,72.6406 Z "/><text fill="#000000" font-family="sans-serif" font-size="12" font-style="italic" lengthAdjust="spacingAndGlyphs" textLength="43" x="84.55" y="80.9102">Matcher</text><rect fill="#FFFFFF" height="17.0938" style="stroke: #000000; stroke-width: 1.0; stroke-dasharray: 2.0,2.0;" width="9" x="149.5" y="57"/><text fill="#000000" font-family="sans-serif" font-size="12" font-style="italic" lengthAdjust="spacingAndGlyphs" textLength="7" x="150.5" y="70.457">T</text><line style="stroke: #A80036; stroke-width: 1.5;" x1="39.5" x2="154.5" y1="92" y2="92"/><line style="stroke: #A80036; stroke-width: 1.5;" x1="39.5" x2="154.5" y1="100" y2="100"/><ellipse cx="49.5" cy="112.418" fill="#84BE84" rx="3" ry="3" style="stroke: #038048; stroke-width: 1.0;"/><text fill="#000000" font-family="sans-serif" font-size="11" font-style="italic" lengthAdjust="spacingAndGlyphs" textLength="91" x="58.5" y="115.4189">match(T): boolean</text><!--
@startuml

    namespace FMS.provided {
        interface Matcher<T> {
            {abstract} +match(T): boolean
        }
    }

@enduml

PlantUML version 1.2018.05(Sat May 05 22:00:17 CEST 2018)
(APACHE source distribution)
Java Runtime: Java(TM) SE Runtime Environment
JVM: Java HotSpot(TM) 64-Bit Server VM
Java Version: 10.0.1+10
Operating System: Windows 10
OS Version: 10.0
Default Encoding: Cp1252
Language: en
Country: US
--></g></svg>