<?xml version="1.0" encoding="UTF-8" standalone="no"?><svg xmlns="http://www.w3.org/2000/svg" xmlns:xlink="http://www.w3.org/1999/xlink" contentScriptType="application/ecmascript" contentStyleType="text/css" height="506px" preserveAspectRatio="none" style="width:736px;height:506px;" version="1.1" viewBox="0 0 736 506" width="736px" zoomAndPan="magnify"><defs><filter height="300%" id="fsaaivf0bkywi" width="300%" x="-1" y="-1"><feGaussianBlur result="blurOut" stdDeviation="2.0"/><feColorMatrix in="blurOut" result="blurOut2" type="matrix" values="0 0 0 0 0 0 0 0 0 0 0 0 0 0 0 0 0 0 .4 0"/><feOffset dx="4.0" dy="4.0" in="blurOut2" result="blurOut3"/><feBlend in="SourceGraphic" in2="blurOut3" mode="normal"/></filter></defs><g><!--cluster FMS.provided--><polygon fill="#FFFFFF" filter="url(#fsaaivf0bkywi)" points="22,162,127,162,134,185.6094,714,185.6094,714,494,22,494,22,162" style="stroke: #000000; stroke-width: 1.5;"/><line style="stroke: #000000; stroke-width: 1.5;" x1="22" x2="134" y1="185.6094" y2="185.6094"/><text fill="#000000" font-family="sans-serif" font-size="14" font-weight="bold" lengthAdjust="spacingAndGlyphs" textLength="99" x="26" y="178.5332">FMS.provided</text><!--cluster java.lang--><polygon fill="#FFFFFF" filter="url(#fsaaivf0bkywi)" points="220,24,289,24,296,47.6094,368,47.6094,368,138,220,138,220,24" style="stroke: #000000; stroke-width: 1.5;"/><line style="stroke: #000000; stroke-width: 1.5;" x1="220" x2="296" y1="47.6094" y2="47.6094"/><text fill="#000000" font-family="sans-serif" font-size="14" font-weight="bold" lengthAdjust="spacingAndGlyphs" textLength="63" x="224" y="40.5332">java.lang</text><!--class FMS.provided.Aircraft--><rect fill="#FEFECE" filter="url(#fsaaivf0bkywi)" height="89.5078" id="FMS.provided.Aircraft" style="stroke: #A80036; stroke-width: 1.5;" width="116" x="582" y="204.5"/><ellipse cx="618.15" cy="220.5" fill="#ADD1B2" rx="11" ry="11" style="stroke: #A80036; stroke-width: 1.0;"/><path d="M620.9156,216.375 Q621.0719,216.1563 621.2594,216.0469 Q621.4469,215.9375 621.6656,215.9375 Q622.0406,215.9375 622.275,216.1953 Q622.5094,216.4531 622.5094,217.0625 L622.5094,218.5156 Q622.5094,219.125 622.275,219.3906 Q622.0406,219.6563 621.6656,219.6563 Q621.3219,219.6563 621.1188,219.4531 Q620.9156,219.2656 620.8063,218.75 Q620.7594,218.3906 620.5719,218.2031 Q620.2438,217.8281 619.6344,217.6094 Q619.025,217.3906 618.4,217.3906 Q617.6344,217.3906 617.0016,217.7188 Q616.3688,218.0469 615.8766,218.7969 Q615.3844,219.5469 615.3844,220.5781 L615.3844,221.6719 Q615.3844,222.9063 616.275,223.7266 Q617.1656,224.5469 618.7594,224.5469 Q619.6969,224.5469 620.3531,224.2969 Q620.7438,224.1406 621.1656,223.7031 Q621.4313,223.4375 621.5797,223.3594 Q621.7281,223.2813 621.9313,223.2813 Q622.2594,223.2813 622.5172,223.5391 Q622.775,223.7969 622.775,224.1406 Q622.775,224.4844 622.4313,224.8906 Q621.9313,225.4688 621.1344,225.7969 Q620.0563,226.25 618.7594,226.25 Q617.2438,226.25 616.0406,225.625 Q615.0563,225.125 614.3688,224.0547 Q613.6813,222.9844 613.6813,221.7031 L613.6813,220.5469 Q613.6813,219.2188 614.2984,218.0703 Q614.9156,216.9219 616.0094,216.3047 Q617.1031,215.6875 618.3375,215.6875 Q619.0719,215.6875 619.7203,215.8516 Q620.3688,216.0156 620.9156,216.375 Z "/><text fill="#000000" font-family="sans-serif" font-size="12" lengthAdjust="spacingAndGlyphs" textLength="37" x="636.85" y="225.4102">Aircraft</text><line style="stroke: #A80036; stroke-width: 1.5;" x1="583" x2="697" y1="236.5" y2="236.5"/><line style="stroke: #A80036; stroke-width: 1.5;" x1="583" x2="697" y1="244.5" y2="244.5"/><ellipse cx="593" cy="256.918" fill="#84BE84" rx="3" ry="3" style="stroke: #038048; stroke-width: 1.0;"/><text fill="#000000" font-family="sans-serif" font-size="11" lengthAdjust="spacingAndGlyphs" textLength="90" x="602" y="259.9189">Aircraft(String, int)</text><ellipse cx="593" cy="270.7539" fill="#84BE84" rx="3" ry="3" style="stroke: #038048; stroke-width: 1.0;"/><text fill="#000000" font-family="sans-serif" font-size="11" lengthAdjust="spacingAndGlyphs" textLength="82" x="602" y="273.7549">Aircraft(Aircraft)</text><ellipse cx="593" cy="284.5898" fill="#84BE84" rx="3" ry="3" style="stroke: #038048; stroke-width: 1.0;"/><text fill="#000000" font-family="sans-serif" font-size="11" lengthAdjust="spacingAndGlyphs" textLength="82" x="602" y="287.5908">getCapactiy(): int</text><!--class FMS.provided.DateTime--><rect fill="#FEFECE" filter="url(#fsaaivf0bkywi)" height="103.3438" id="FMS.provided.DateTime" style="stroke: #A80036; stroke-width: 1.5;" width="157" x="389.5" y="198"/><ellipse cx="436.75" cy="214" fill="#ADD1B2" rx="11" ry="11" style="stroke: #A80036; stroke-width: 1.0;"/><path d="M439.5156,209.875 Q439.6719,209.6563 439.8594,209.5469 Q440.0469,209.4375 440.2656,209.4375 Q440.6406,209.4375 440.875,209.6953 Q441.1094,209.9531 441.1094,210.5625 L441.1094,212.0156 Q441.1094,212.625 440.875,212.8906 Q440.6406,213.1563 440.2656,213.1563 Q439.9219,213.1563 439.7188,212.9531 Q439.5156,212.7656 439.4063,212.25 Q439.3594,211.8906 439.1719,211.7031 Q438.8438,211.3281 438.2344,211.1094 Q437.625,210.8906 437,210.8906 Q436.2344,210.8906 435.6016,211.2188 Q434.9688,211.5469 434.4766,212.2969 Q433.9844,213.0469 433.9844,214.0781 L433.9844,215.1719 Q433.9844,216.4063 434.875,217.2266 Q435.7656,218.0469 437.3594,218.0469 Q438.2969,218.0469 438.9531,217.7969 Q439.3438,217.6406 439.7656,217.2031 Q440.0313,216.9375 440.1797,216.8594 Q440.3281,216.7813 440.5313,216.7813 Q440.8594,216.7813 441.1172,217.0391 Q441.375,217.2969 441.375,217.6406 Q441.375,217.9844 441.0313,218.3906 Q440.5313,218.9688 439.7344,219.2969 Q438.6563,219.75 437.3594,219.75 Q435.8438,219.75 434.6406,219.125 Q433.6563,218.625 432.9688,217.5547 Q432.2813,216.4844 432.2813,215.2031 L432.2813,214.0469 Q432.2813,212.7188 432.8984,211.5703 Q433.5156,210.4219 434.6094,209.8047 Q435.7031,209.1875 436.9375,209.1875 Q437.6719,209.1875 438.3203,209.3516 Q438.9688,209.5156 439.5156,209.875 Z "/><text fill="#000000" font-family="sans-serif" font-size="12" lengthAdjust="spacingAndGlyphs" textLength="54" x="457.25" y="218.9102">DateTime</text><line style="stroke: #A80036; stroke-width: 1.5;" x1="390.5" x2="545.5" y1="230" y2="230"/><line style="stroke: #A80036; stroke-width: 1.5;" x1="390.5" x2="545.5" y1="238" y2="238"/><ellipse cx="400.5" cy="250.418" fill="#84BE84" rx="3" ry="3" style="stroke: #038048; stroke-width: 1.0;"/><text fill="#000000" font-family="sans-serif" font-size="11" lengthAdjust="spacingAndGlyphs" textLength="96" x="409.5" y="253.4189">DateTime(DateTime)</text><ellipse cx="400.5" cy="264.2539" fill="#84BE84" rx="3" ry="3" style="stroke: #038048; stroke-width: 1.0;"/><text fill="#000000" font-family="sans-serif" font-size="11" lengthAdjust="spacingAndGlyphs" textLength="131" x="409.5" y="267.2549">DateTime(int, int, int, int, int)</text><ellipse cx="400.5" cy="278.0898" fill="#84BE84" rx="3" ry="3" style="stroke: #038048; stroke-width: 1.0;"/><text fill="#000000" font-family="sans-serif" font-size="11" lengthAdjust="spacingAndGlyphs" textLength="123" x="409.5" y="281.0908">compareTo(DateTime): int</text><ellipse cx="400.5" cy="291.9258" fill="#84BE84" rx="3" ry="3" style="stroke: #038048; stroke-width: 1.0;"/><text fill="#000000" font-family="sans-serif" font-size="11" lengthAdjust="spacingAndGlyphs" textLength="82" x="409.5" y="294.9268">timestamp(): long</text><!--class FMS.provided.Matcher--><rect fill="#FEFECE" filter="url(#fsaaivf0bkywi)" height="61.8359" id="FMS.provided.Matcher" style="stroke: #A80036; stroke-width: 1.5;" width="117" x="237.5" y="218.5"/><ellipse cx="266.45" cy="234.5" fill="#B4A7E5" rx="11" ry="11" style="stroke: #A80036; stroke-width: 1.0;"/><path d="M267.4031,231.1406 L267.4031,237.7969 L269.1219,237.7969 Q269.7313,237.7969 269.9969,238.0313 Q270.2625,238.2656 270.2625,238.6563 Q270.2625,239.0313 269.9969,239.2656 Q269.7313,239.5 269.1219,239.5 L263.9813,239.5 Q263.3719,239.5 263.1063,239.2656 Q262.8406,239.0313 262.8406,238.6406 Q262.8406,238.2656 263.1063,238.0313 Q263.3719,237.7969 263.9813,237.7969 L265.7,237.7969 L265.7,231.1406 L263.9813,231.1406 Q263.3719,231.1406 263.1063,230.9063 Q262.8406,230.6719 262.8406,230.2813 Q262.8406,229.9063 263.1063,229.6719 Q263.3719,229.4375 263.9813,229.4375 L269.1219,229.4375 Q269.7313,229.4375 269.9969,229.6719 Q270.2625,229.9063 270.2625,230.2813 Q270.2625,230.6719 269.9969,230.9063 Q269.7313,231.1406 269.1219,231.1406 L267.4031,231.1406 Z "/><text fill="#000000" font-family="sans-serif" font-size="12" font-style="italic" lengthAdjust="spacingAndGlyphs" textLength="43" x="283.55" y="239.4102">Matcher</text><rect fill="#FFFFFF" height="17.0938" style="stroke: #000000; stroke-width: 1.0; stroke-dasharray: 2.0,2.0;" width="9" x="348.5" y="215.5"/><text fill="#000000" font-family="sans-serif" font-size="12" font-style="italic" lengthAdjust="spacingAndGlyphs" textLength="7" x="349.5" y="228.957">T</text><line style="stroke: #A80036; stroke-width: 1.5;" x1="238.5" x2="353.5" y1="250.5" y2="250.5"/><line style="stroke: #A80036; stroke-width: 1.5;" x1="238.5" x2="353.5" y1="258.5" y2="258.5"/><ellipse cx="248.5" cy="270.918" fill="#84BE84" rx="3" ry="3" style="stroke: #038048; stroke-width: 1.0;"/><text fill="#000000" font-family="sans-serif" font-size="11" font-style="italic" lengthAdjust="spacingAndGlyphs" textLength="91" x="257.5" y="273.9189">match(T): boolean</text><!--class FMS.provided.Passenger--><rect fill="#FEFECE" filter="url(#fsaaivf0bkywi)" height="117.1797" id="FMS.provided.Passenger" style="stroke: #A80036; stroke-width: 1.5;" width="182" x="38" y="361"/><ellipse cx="94.25" cy="377" fill="#ADD1B2" rx="11" ry="11" style="stroke: #A80036; stroke-width: 1.0;"/><path d="M97.0156,372.875 Q97.1719,372.6563 97.3594,372.5469 Q97.5469,372.4375 97.7656,372.4375 Q98.1406,372.4375 98.375,372.6953 Q98.6094,372.9531 98.6094,373.5625 L98.6094,375.0156 Q98.6094,375.625 98.375,375.8906 Q98.1406,376.1563 97.7656,376.1563 Q97.4219,376.1563 97.2188,375.9531 Q97.0156,375.7656 96.9063,375.25 Q96.8594,374.8906 96.6719,374.7031 Q96.3438,374.3281 95.7344,374.1094 Q95.125,373.8906 94.5,373.8906 Q93.7344,373.8906 93.1016,374.2188 Q92.4688,374.5469 91.9766,375.2969 Q91.4844,376.0469 91.4844,377.0781 L91.4844,378.1719 Q91.4844,379.4063 92.375,380.2266 Q93.2656,381.0469 94.8594,381.0469 Q95.7969,381.0469 96.4531,380.7969 Q96.8438,380.6406 97.2656,380.2031 Q97.5313,379.9375 97.6797,379.8594 Q97.8281,379.7813 98.0313,379.7813 Q98.3594,379.7813 98.6172,380.0391 Q98.875,380.2969 98.875,380.6406 Q98.875,380.9844 98.5313,381.3906 Q98.0313,381.9688 97.2344,382.2969 Q96.1563,382.75 94.8594,382.75 Q93.3438,382.75 92.1406,382.125 Q91.1563,381.625 90.4688,380.5547 Q89.7813,379.4844 89.7813,378.2031 L89.7813,377.0469 Q89.7813,375.7188 90.3984,374.5703 Q91.0156,373.4219 92.1094,372.8047 Q93.2031,372.1875 94.4375,372.1875 Q95.1719,372.1875 95.8203,372.3516 Q96.4688,372.5156 97.0156,372.875 Z "/><text fill="#000000" font-family="sans-serif" font-size="12" lengthAdjust="spacingAndGlyphs" textLength="61" x="114.75" y="381.9102">Passenger</text><line style="stroke: #A80036; stroke-width: 1.5;" x1="39" x2="219" y1="393" y2="393"/><line style="stroke: #A80036; stroke-width: 1.5;" x1="39" x2="219" y1="401" y2="401"/><ellipse cx="49" cy="413.418" fill="#84BE84" rx="3" ry="3" style="stroke: #038048; stroke-width: 1.0;"/><text fill="#000000" font-family="sans-serif" font-size="11" lengthAdjust="spacingAndGlyphs" textLength="156" x="58" y="416.4189">Passenger(String, String, String)</text><ellipse cx="49" cy="427.2539" fill="#84BE84" rx="3" ry="3" style="stroke: #038048; stroke-width: 1.0;"/><text fill="#000000" font-family="sans-serif" font-size="11" lengthAdjust="spacingAndGlyphs" textLength="112" x="58" y="430.2549">Passenger(Passenger)</text><ellipse cx="49" cy="441.0898" fill="#84BE84" rx="3" ry="3" style="stroke: #038048; stroke-width: 1.0;"/><text fill="#000000" font-family="sans-serif" font-size="11" lengthAdjust="spacingAndGlyphs" textLength="94" x="58" y="444.0908">Passenger(Person)</text><ellipse cx="49" cy="454.9258" fill="#84BE84" rx="3" ry="3" style="stroke: #038048; stroke-width: 1.0;"/><text fill="#000000" font-family="sans-serif" font-size="11" lengthAdjust="spacingAndGlyphs" textLength="115" x="58" y="457.9268">setBoarded(Flight): void</text><ellipse cx="49" cy="468.7617" fill="#84BE84" rx="3" ry="3" style="stroke: #038048; stroke-width: 1.0;"/><text fill="#000000" font-family="sans-serif" font-size="11" lengthAdjust="spacingAndGlyphs" textLength="95" x="58" y="471.7627">getBoarded(): Flight</text><!--class FMS.provided.Person--><rect fill="#FEFECE" filter="url(#fsaaivf0bkywi)" height="89.5078" id="FMS.provided.Person" style="stroke: #A80036; stroke-width: 1.5;" width="164" x="38" y="204.5"/><ellipse cx="95.75" cy="220.5" fill="#ADD1B2" rx="11" ry="11" style="stroke: #A80036; stroke-width: 1.0;"/><path d="M98.5156,216.375 Q98.6719,216.1563 98.8594,216.0469 Q99.0469,215.9375 99.2656,215.9375 Q99.6406,215.9375 99.875,216.1953 Q100.1094,216.4531 100.1094,217.0625 L100.1094,218.5156 Q100.1094,219.125 99.875,219.3906 Q99.6406,219.6563 99.2656,219.6563 Q98.9219,219.6563 98.7188,219.4531 Q98.5156,219.2656 98.4063,218.75 Q98.3594,218.3906 98.1719,218.2031 Q97.8438,217.8281 97.2344,217.6094 Q96.625,217.3906 96,217.3906 Q95.2344,217.3906 94.6016,217.7188 Q93.9688,218.0469 93.4766,218.7969 Q92.9844,219.5469 92.9844,220.5781 L92.9844,221.6719 Q92.9844,222.9063 93.875,223.7266 Q94.7656,224.5469 96.3594,224.5469 Q97.2969,224.5469 97.9531,224.2969 Q98.3438,224.1406 98.7656,223.7031 Q99.0313,223.4375 99.1797,223.3594 Q99.3281,223.2813 99.5313,223.2813 Q99.8594,223.2813 100.1172,223.5391 Q100.375,223.7969 100.375,224.1406 Q100.375,224.4844 100.0313,224.8906 Q99.5313,225.4688 98.7344,225.7969 Q97.6563,226.25 96.3594,226.25 Q94.8438,226.25 93.6406,225.625 Q92.6563,225.125 91.9688,224.0547 Q91.2813,222.9844 91.2813,221.7031 L91.2813,220.5469 Q91.2813,219.2188 91.8984,218.0703 Q92.5156,216.9219 93.6094,216.3047 Q94.7031,215.6875 95.9375,215.6875 Q96.6719,215.6875 97.3203,215.8516 Q97.9688,216.0156 98.5156,216.375 Z "/><text fill="#000000" font-family="sans-serif" font-size="12" lengthAdjust="spacingAndGlyphs" textLength="40" x="116.25" y="225.4102">Person</text><line style="stroke: #A80036; stroke-width: 1.5;" x1="39" x2="201" y1="236.5" y2="236.5"/><line style="stroke: #A80036; stroke-width: 1.5;" x1="39" x2="201" y1="244.5" y2="244.5"/><ellipse cx="49" cy="256.918" fill="#84BE84" rx="3" ry="3" style="stroke: #038048; stroke-width: 1.0;"/><text fill="#000000" font-family="sans-serif" font-size="11" lengthAdjust="spacingAndGlyphs" textLength="138" x="58" y="259.9189">Person(String, String, String)</text><ellipse cx="49" cy="270.7539" fill="#84BE84" rx="3" ry="3" style="stroke: #038048; stroke-width: 1.0;"/><text fill="#000000" font-family="sans-serif" font-size="11" lengthAdjust="spacingAndGlyphs" textLength="76" x="58" y="273.7549">Person(Person)</text><ellipse cx="49" cy="284.5898" fill="#84BE84" rx="3" ry="3" style="stroke: #038048; stroke-width: 1.0;"/><text fill="#000000" font-family="sans-serif" font-size="11" lengthAdjust="spacingAndGlyphs" textLength="113" x="58" y="287.5908">compareTo(Person): int</text><!--class FMS.provided.Staff--><rect fill="#FEFECE" filter="url(#fsaaivf0bkywi)" height="89.5078" id="FMS.provided.Staff" style="stroke: #A80036; stroke-width: 1.5;" width="188" x="255" y="374.5"/><ellipse cx="332.75" cy="390.5" fill="#ADD1B2" rx="11" ry="11" style="stroke: #A80036; stroke-width: 1.0;"/><path d="M335.5156,386.375 Q335.6719,386.1563 335.8594,386.0469 Q336.0469,385.9375 336.2656,385.9375 Q336.6406,385.9375 336.875,386.1953 Q337.1094,386.4531 337.1094,387.0625 L337.1094,388.5156 Q337.1094,389.125 336.875,389.3906 Q336.6406,389.6563 336.2656,389.6563 Q335.9219,389.6563 335.7188,389.4531 Q335.5156,389.2656 335.4063,388.75 Q335.3594,388.3906 335.1719,388.2031 Q334.8438,387.8281 334.2344,387.6094 Q333.625,387.3906 333,387.3906 Q332.2344,387.3906 331.6016,387.7188 Q330.9688,388.0469 330.4766,388.7969 Q329.9844,389.5469 329.9844,390.5781 L329.9844,391.6719 Q329.9844,392.9063 330.875,393.7266 Q331.7656,394.5469 333.3594,394.5469 Q334.2969,394.5469 334.9531,394.2969 Q335.3438,394.1406 335.7656,393.7031 Q336.0313,393.4375 336.1797,393.3594 Q336.3281,393.2813 336.5313,393.2813 Q336.8594,393.2813 337.1172,393.5391 Q337.375,393.7969 337.375,394.1406 Q337.375,394.4844 337.0313,394.8906 Q336.5313,395.4688 335.7344,395.7969 Q334.6563,396.25 333.3594,396.25 Q331.8438,396.25 330.6406,395.625 Q329.6563,395.125 328.9688,394.0547 Q328.2813,392.9844 328.2813,391.7031 L328.2813,390.5469 Q328.2813,389.2188 328.8984,388.0703 Q329.5156,386.9219 330.6094,386.3047 Q331.7031,385.6875 332.9375,385.6875 Q333.6719,385.6875 334.3203,385.8516 Q334.9688,386.0156 335.5156,386.375 Z "/><text fill="#000000" font-family="sans-serif" font-size="12" lengthAdjust="spacingAndGlyphs" textLength="24" x="353.25" y="395.4102">Staff</text><line style="stroke: #A80036; stroke-width: 1.5;" x1="256" x2="442" y1="406.5" y2="406.5"/><line style="stroke: #A80036; stroke-width: 1.5;" x1="256" x2="442" y1="414.5" y2="414.5"/><ellipse cx="266" cy="426.918" fill="#84BE84" rx="3" ry="3" style="stroke: #038048; stroke-width: 1.0;"/><text fill="#000000" font-family="sans-serif" font-size="11" lengthAdjust="spacingAndGlyphs" textLength="56" x="275" y="429.9189">Staff(Staff)</text><ellipse cx="266" cy="440.7539" fill="#84BE84" rx="3" ry="3" style="stroke: #038048; stroke-width: 1.0;"/><text fill="#000000" font-family="sans-serif" font-size="11" lengthAdjust="spacingAndGlyphs" textLength="162" x="275" y="443.7549">Staff(String, String, String, String)</text><ellipse cx="266" cy="454.5898" fill="#84BE84" rx="3" ry="3" style="stroke: #038048; stroke-width: 1.0;"/><text fill="#000000" font-family="sans-serif" font-size="11" lengthAdjust="spacingAndGlyphs" textLength="100" x="275" y="457.5908">Staff(Person, String)</text><!--class java.lang.Comparable--><rect fill="#FEFECE" filter="url(#fsaaivf0bkywi)" height="61.8359" id="java.lang.Comparable" style="stroke: #A80036; stroke-width: 1.5;" width="115" x="236.5" y="60"/><ellipse cx="252.4" cy="76" fill="#B4A7E5" rx="11" ry="11" style="stroke: #A80036; stroke-width: 1.0;"/><path d="M253.3531,72.6406 L253.3531,79.2969 L255.0719,79.2969 Q255.6813,79.2969 255.9469,79.5313 Q256.2125,79.7656 256.2125,80.1563 Q256.2125,80.5313 255.9469,80.7656 Q255.6813,81 255.0719,81 L249.9313,81 Q249.3219,81 249.0563,80.7656 Q248.7906,80.5313 248.7906,80.1406 Q248.7906,79.7656 249.0563,79.5313 Q249.3219,79.2969 249.9313,79.2969 L251.65,79.2969 L251.65,72.6406 L249.9313,72.6406 Q249.3219,72.6406 249.0563,72.4063 Q248.7906,72.1719 248.7906,71.7813 Q248.7906,71.4063 249.0563,71.1719 Q249.3219,70.9375 249.9313,70.9375 L255.0719,70.9375 Q255.6813,70.9375 255.9469,71.1719 Q256.2125,71.4063 256.2125,71.7813 Q256.2125,72.1719 255.9469,72.4063 Q255.6813,72.6406 255.0719,72.6406 L253.3531,72.6406 Z "/><text fill="#000000" font-family="sans-serif" font-size="12" font-style="italic" lengthAdjust="spacingAndGlyphs" textLength="70" x="266.6" y="80.9102">Comparable</text><rect fill="#FFFFFF" height="17.0938" style="stroke: #000000; stroke-width: 1.0; stroke-dasharray: 2.0,2.0;" width="9" x="345.5" y="57"/><text fill="#000000" font-family="sans-serif" font-size="12" font-style="italic" lengthAdjust="spacingAndGlyphs" textLength="7" x="346.5" y="70.457">T</text><line style="stroke: #A80036; stroke-width: 1.5;" x1="237.5" x2="350.5" y1="92" y2="92"/><line style="stroke: #A80036; stroke-width: 1.5;" x1="237.5" x2="350.5" y1="100" y2="100"/><ellipse cx="247.5" cy="112.418" fill="#84BE84" rx="3" ry="3" style="stroke: #038048; stroke-width: 1.0;"/><text fill="#000000" font-family="sans-serif" font-size="11" font-style="italic" lengthAdjust="spacingAndGlyphs" textLength="89" x="256.5" y="115.4189">compareTo(T): int</text><!--link java.lang.Comparable to FMS.provided.DateTime--><path d="M349.232,134.705 C356.986,141.045 364.771,147.601 372,154 C387.585,167.796 403.937,183.421 418.639,197.936 " fill="none" id="java.lang.Comparable-FMS.provided.DateTime" style="stroke: #A80036; stroke-width: 1.0; stroke-dasharray: 7.0,7.0;"/><polygon fill="none" points="344.761,140.092,333.546,122.113,353.525,129.174,344.761,140.092" style="stroke: #A80036; stroke-width: 1.0;"/><!--link FMS.provided.Person to FMS.provided.Passenger--><path d="M123.446,314.83 C124.256,329.938 125.113,345.944 125.906,360.743 " fill="none" id="FMS.provided.Person-FMS.provided.Passenger" style="stroke: #A80036; stroke-width: 1.0;"/><polygon fill="none" points="116.445,314.986,122.365,294.64,130.425,314.237,116.445,314.986" style="stroke: #A80036; stroke-width: 1.0;"/><!--link java.lang.Comparable to FMS.provided.Person--><path d="M241.778,135.086 C234.406,141.361 226.969,147.797 220,154 C201.978,170.039 182.611,188.132 165.766,204.161 " fill="none" id="java.lang.Comparable-FMS.provided.Person" style="stroke: #A80036; stroke-width: 1.0; stroke-dasharray: 7.0,7.0;"/><polygon fill="none" points="237.315,129.693,257.122,122.162,246.334,140.4,237.315,129.693" style="stroke: #A80036; stroke-width: 1.0;"/><!--link FMS.provided.Person to FMS.provided.Staff--><path d="M196.414,306.559 C226.502,328.632 260.55,353.611 288.838,374.363 " fill="none" id="FMS.provided.Person-FMS.provided.Staff" style="stroke: #A80036; stroke-width: 1.0;"/><polygon fill="none" points="192.152,312.114,180.167,294.64,200.434,300.826,192.152,312.114" style="stroke: #A80036; stroke-width: 1.0;"/><!--
@startuml

    namespace FMS.provided {

        class Aircraft {
            +Aircraft(String, int)
            +Aircraft(Aircraft)
            +getCapactiy(): int
        }

        class DateTime {
            +DateTime(DateTime)
            +DateTime(int, int, int, int, int)
            +compareTo(DateTime): int
            +timestamp(): long
        }

        interface Matcher<T> {
            {abstract} +match(T): boolean
        }

        class Passenger {
            +Passenger(String, String, String)
            +Passenger(Passenger)
            +Passenger(Person)
            +setBoarded(Flight): void
            +getBoarded(): Flight
        }

        class Person {
            +Person(String, String, String)
            +Person(Person)
            +compareTo(Person): int
        }

        class Staff {
            +Staff(Staff)
            +Staff(String, String, String, String)
            +Staff(Person, String)
        }
    }

    namespace java.lang {
        interface Comparable<T> {
            {abstract} +compareTo(T): int
        }
    }

    java.lang.Comparable <|.. FMS.provided.DateTime
    FMS.provided.Person <|- - FMS.provided.Passenger
    java.lang.Comparable <|.. FMS.provided.Person
    FMS.provided.Person <|- - FMS.provided.Staff

@enduml

PlantUML version 1.2018.05(Sat May 05 22:00:17 CEST 2018)
(APACHE source distribution)
Java Runtime: Java(TM) SE Runtime Environment
JVM: Java HotSpot(TM) 64-Bit Server VM
Java Version: 10.0.1+10
Operating System: Windows 10
OS Version: 10.0
Default Encoding: Cp1252
Language: en
Country: US
--></g></svg>