<?xml version="1.0" encoding="UTF-8" standalone="no"?><svg xmlns="http://www.w3.org/2000/svg" xmlns:xlink="http://www.w3.org/1999/xlink" contentScriptType="application/ecmascript" contentStyleType="text/css" height="673px" preserveAspectRatio="none" style="width:701px;height:673px;" version="1.1" viewBox="0 0 701 673" width="701px" zoomAndPan="magnify"><defs><filter height="300%" id="f1x379wlizc0pp" width="300%" x="-1" y="-1"><feGaussianBlur result="blurOut" stdDeviation="2.0"/><feColorMatrix in="blurOut" result="blurOut2" type="matrix" values="0 0 0 0 0 0 0 0 0 0 0 0 0 0 0 0 0 0 .4 0"/><feOffset dx="4.0" dy="4.0" in="blurOut2" result="blurOut3"/><feBlend in="SourceGraphic" in2="blurOut3" mode="normal"/></filter></defs><g><!--cluster FMS.entities--><polygon fill="#FFFFFF" filter="url(#f1x379wlizc0pp)" points="22,162,116,162,123,185.6094,679,185.6094,679,661,22,661,22,162" style="stroke: #000000; stroke-width: 1.5;"/><line style="stroke: #000000; stroke-width: 1.5;" x1="22" x2="123" y1="185.6094" y2="185.6094"/><text fill="#000000" font-family="sans-serif" font-size="14" font-weight="bold" lengthAdjust="spacingAndGlyphs" textLength="88" x="26" y="178.5332">FMS.entities</text><!--cluster java.lang--><polygon fill="#FFFFFF" filter="url(#f1x379wlizc0pp)" points="262,24,331,24,338,47.6094,410,47.6094,410,138,262,138,262,24" style="stroke: #000000; stroke-width: 1.5;"/><line style="stroke: #000000; stroke-width: 1.5;" x1="262" x2="338" y1="47.6094" y2="47.6094"/><text fill="#000000" font-family="sans-serif" font-size="14" font-weight="bold" lengthAdjust="spacingAndGlyphs" textLength="63" x="266" y="40.5332">java.lang</text><!--class FMS.entities.Charter--><rect fill="#FEFECE" filter="url(#f1x379wlizc0pp)" height="75.6719" id="FMS.entities.Charter" style="stroke: #A80036; stroke-width: 1.5;" width="266" x="38" y="562"/><ellipse cx="146.25" cy="578" fill="#ADD1B2" rx="11" ry="11" style="stroke: #A80036; stroke-width: 1.0;"/><path d="M149.0156,573.875 Q149.1719,573.6563 149.3594,573.5469 Q149.5469,573.4375 149.7656,573.4375 Q150.1406,573.4375 150.375,573.6953 Q150.6094,573.9531 150.6094,574.5625 L150.6094,576.0156 Q150.6094,576.625 150.375,576.8906 Q150.1406,577.1563 149.7656,577.1563 Q149.4219,577.1563 149.2188,576.9531 Q149.0156,576.7656 148.9063,576.25 Q148.8594,575.8906 148.6719,575.7031 Q148.3438,575.3281 147.7344,575.1094 Q147.125,574.8906 146.5,574.8906 Q145.7344,574.8906 145.1016,575.2188 Q144.4688,575.5469 143.9766,576.2969 Q143.4844,577.0469 143.4844,578.0781 L143.4844,579.1719 Q143.4844,580.4063 144.375,581.2266 Q145.2656,582.0469 146.8594,582.0469 Q147.7969,582.0469 148.4531,581.7969 Q148.8438,581.6406 149.2656,581.2031 Q149.5313,580.9375 149.6797,580.8594 Q149.8281,580.7813 150.0313,580.7813 Q150.3594,580.7813 150.6172,581.0391 Q150.875,581.2969 150.875,581.6406 Q150.875,581.9844 150.5313,582.3906 Q150.0313,582.9688 149.2344,583.2969 Q148.1563,583.75 146.8594,583.75 Q145.3438,583.75 144.1406,583.125 Q143.1563,582.625 142.4688,581.5547 Q141.7813,580.4844 141.7813,579.2031 L141.7813,578.0469 Q141.7813,576.7188 142.3984,575.5703 Q143.0156,574.4219 144.1094,573.8047 Q145.2031,573.1875 146.4375,573.1875 Q147.1719,573.1875 147.8203,573.3516 Q148.4688,573.5156 149.0156,573.875 Z "/><text fill="#000000" font-family="sans-serif" font-size="12" lengthAdjust="spacingAndGlyphs" textLength="41" x="166.75" y="582.9102">Charter</text><line style="stroke: #A80036; stroke-width: 1.5;" x1="39" x2="303" y1="594" y2="594"/><line style="stroke: #A80036; stroke-width: 1.5;" x1="39" x2="303" y1="602" y2="602"/><ellipse cx="49" cy="614.418" fill="#84BE84" rx="3" ry="3" style="stroke: #038048; stroke-width: 1.0;"/><text fill="#000000" font-family="sans-serif" font-size="11" lengthAdjust="spacingAndGlyphs" textLength="240" x="58" y="617.4189">Charter(String, String, String, DateTime, DateTime)</text><ellipse cx="49" cy="628.2539" fill="#84BE84" rx="3" ry="3" style="stroke: #038048; stroke-width: 1.0;"/><text fill="#000000" font-family="sans-serif" font-size="11" lengthAdjust="spacingAndGlyphs" textLength="95" x="58" y="631.2549">getBonusMiles(): int</text><!--class FMS.entities.Flight--><rect fill="#FEFECE" filter="url(#f1x379wlizc0pp)" height="297.0469" id="FMS.entities.Flight" style="stroke: #A80036; stroke-width: 1.5;" width="255" x="208.5" y="198"/><ellipse cx="316.75" cy="214" fill="#A9DCDF" rx="11" ry="11" style="stroke: #A80036; stroke-width: 1.0;"/><path d="M318.9375,215.7656 L314.7969,215.7656 L314.375,216.7969 L314.7969,216.7969 Q315.4063,216.7969 315.6719,217.0313 Q315.9375,217.2656 315.9375,217.6563 Q315.9375,218.0313 315.6719,218.2656 Q315.4063,218.5 314.7969,218.5 L312.5,218.5 Q311.8906,218.5 311.6328,218.2656 Q311.375,218.0313 311.375,217.6406 Q311.375,217.2656 311.6484,217.0234 Q311.9219,216.7813 312.5469,216.7969 L315.2188,210.1406 L314.1094,210.1406 Q313.5,210.1406 313.2344,209.9063 Q312.9688,209.6719 312.9688,209.2813 Q312.9688,208.9063 313.2344,208.6719 Q313.5,208.4375 314.1094,208.4375 L317.7813,208.4375 L321.1719,216.7969 Q321.7656,216.7969 321.9531,216.9375 Q322.3438,217.2031 322.3438,217.6563 Q322.3438,218.0313 322.0859,218.2656 Q321.8281,218.5 321.2188,218.5 L318.9219,218.5 Q318.3125,218.5 318.0469,218.2656 Q317.7813,218.0313 317.7813,217.6406 Q317.7813,217.2656 318.0469,217.0313 Q318.3125,216.7969 318.9219,216.7969 L319.3438,216.7969 L318.9375,215.7656 Z M318.2188,214.0625 L316.8594,210.6875 L315.4844,214.0625 L318.2188,214.0625 Z "/><text fill="#000000" font-family="sans-serif" font-size="12" font-style="italic" lengthAdjust="spacingAndGlyphs" textLength="30" x="337.25" y="218.9102">Flight</text><line style="stroke: #A80036; stroke-width: 1.5;" x1="209.5" x2="462.5" y1="230" y2="230"/><line style="stroke: #A80036; stroke-width: 1.5;" x1="209.5" x2="462.5" y1="238" y2="238"/><ellipse cx="219.5" cy="250.418" fill="#84BE84" rx="3" ry="3" style="stroke: #038048; stroke-width: 1.0;"/><text fill="#000000" font-family="sans-serif" font-size="11" lengthAdjust="spacingAndGlyphs" textLength="229" x="228.5" y="253.4189">Flight(String, String, String, DateTime, DateTime)</text><ellipse cx="219.5" cy="264.2539" fill="#84BE84" rx="3" ry="3" style="stroke: #038048; stroke-width: 1.0;"/><text fill="#000000" font-family="sans-serif" font-size="11" lengthAdjust="spacingAndGlyphs" textLength="58" x="228.5" y="267.2549">Flight(Flight)</text><ellipse cx="219.5" cy="278.0898" fill="#84BE84" rx="3" ry="3" style="stroke: #038048; stroke-width: 1.0;"/><text fill="#000000" font-family="sans-serif" font-size="11" lengthAdjust="spacingAndGlyphs" textLength="111" x="228.5" y="281.0908">setFlightID(String): void</text><ellipse cx="219.5" cy="291.9258" fill="#84BE84" rx="3" ry="3" style="stroke: #038048; stroke-width: 1.0;"/><text fill="#000000" font-family="sans-serif" font-size="11" lengthAdjust="spacingAndGlyphs" textLength="130" x="228.5" y="294.9268">setDestination(String): void</text><ellipse cx="219.5" cy="305.7617" fill="#84BE84" rx="3" ry="3" style="stroke: #038048; stroke-width: 1.0;"/><text fill="#000000" font-family="sans-serif" font-size="11" lengthAdjust="spacingAndGlyphs" textLength="85" x="228.5" y="308.7627">getOrigin(): String</text><ellipse cx="219.5" cy="319.5977" fill="#84BE84" rx="3" ry="3" style="stroke: #038048; stroke-width: 1.0;"/><text fill="#000000" font-family="sans-serif" font-size="11" lengthAdjust="spacingAndGlyphs" textLength="105" x="228.5" y="322.5986">setOrigin(String): void</text><ellipse cx="219.5" cy="333.4336" fill="#84BE84" rx="3" ry="3" style="stroke: #038048; stroke-width: 1.0;"/><text fill="#000000" font-family="sans-serif" font-size="11" lengthAdjust="spacingAndGlyphs" textLength="121" x="228.5" y="336.4346">getDeparture(): DateTime</text><ellipse cx="219.5" cy="347.2695" fill="#84BE84" rx="3" ry="3" style="stroke: #038048; stroke-width: 1.0;"/><text fill="#000000" font-family="sans-serif" font-size="11" lengthAdjust="spacingAndGlyphs" textLength="141" x="228.5" y="350.2705">setDeparture(DateTime): void</text><ellipse cx="219.5" cy="361.1055" fill="#84BE84" rx="3" ry="3" style="stroke: #038048; stroke-width: 1.0;"/><text fill="#000000" font-family="sans-serif" font-size="11" lengthAdjust="spacingAndGlyphs" textLength="125" x="228.5" y="364.1064">setArrival(DateTime): void</text><ellipse cx="219.5" cy="374.9414" fill="#84BE84" rx="3" ry="3" style="stroke: #038048; stroke-width: 1.0;"/><text fill="#000000" font-family="sans-serif" font-size="11" font-style="italic" lengthAdjust="spacingAndGlyphs" textLength="99" x="228.5" y="377.9424">getBonusMiles(): int</text><ellipse cx="219.5" cy="388.7773" fill="#84BE84" rx="3" ry="3" style="stroke: #038048; stroke-width: 1.0;"/><text fill="#000000" font-family="sans-serif" font-size="11" lengthAdjust="spacingAndGlyphs" textLength="104" x="228.5" y="391.7783">compareTo(Flight): int</text><ellipse cx="219.5" cy="402.6133" fill="#84BE84" rx="3" ry="3" style="stroke: #038048; stroke-width: 1.0;"/><text fill="#000000" font-family="sans-serif" font-size="11" lengthAdjust="spacingAndGlyphs" textLength="94" x="228.5" y="405.6143">add(Staff): boolean</text><ellipse cx="219.5" cy="416.4492" fill="#84BE84" rx="3" ry="3" style="stroke: #038048; stroke-width: 1.0;"/><text fill="#000000" font-family="sans-serif" font-size="11" lengthAdjust="spacingAndGlyphs" textLength="122" x="228.5" y="419.4502">add(Passenger): boolean</text><ellipse cx="219.5" cy="430.2852" fill="#84BE84" rx="3" ry="3" style="stroke: #038048; stroke-width: 1.0;"/><text fill="#000000" font-family="sans-serif" font-size="11" lengthAdjust="spacingAndGlyphs" textLength="121" x="228.5" y="433.2861">readyToBoard(): boolean</text><ellipse cx="219.5" cy="444.1211" fill="#84BE84" rx="3" ry="3" style="stroke: #038048; stroke-width: 1.0;"/><text fill="#000000" font-family="sans-serif" font-size="11" lengthAdjust="spacingAndGlyphs" textLength="144" x="228.5" y="447.1221">boardingCompleted(): boolean</text><ellipse cx="219.5" cy="457.957" fill="#84BE84" rx="3" ry="3" style="stroke: #038048; stroke-width: 1.0;"/><text fill="#000000" font-family="sans-serif" font-size="11" lengthAdjust="spacingAndGlyphs" textLength="132" x="228.5" y="460.958">board(Passenger): boolean</text><ellipse cx="219.5" cy="471.793" fill="#84BE84" rx="3" ry="3" style="stroke: #038048; stroke-width: 1.0;"/><text fill="#000000" font-family="sans-serif" font-size="11" lengthAdjust="spacingAndGlyphs" textLength="90" x="228.5" y="474.7939">getFlightId(): String</text><ellipse cx="219.5" cy="485.6289" fill="#84BE84" rx="3" ry="3" style="stroke: #038048; stroke-width: 1.0;"/><text fill="#000000" font-family="sans-serif" font-size="11" lengthAdjust="spacingAndGlyphs" textLength="125" x="228.5" y="488.6299">setVessel(Aircraft): Flight</text><!--class FMS.entities.ScheduledFlight--><rect fill="#FEFECE" filter="url(#f1x379wlizc0pp)" height="89.5078" id="FMS.entities.ScheduledFlight" style="stroke: #A80036; stroke-width: 1.5;" width="323" x="339.5" y="555"/><ellipse cx="452.25" cy="571" fill="#ADD1B2" rx="11" ry="11" style="stroke: #A80036; stroke-width: 1.0;"/><path d="M455.0156,566.875 Q455.1719,566.6563 455.3594,566.5469 Q455.5469,566.4375 455.7656,566.4375 Q456.1406,566.4375 456.375,566.6953 Q456.6094,566.9531 456.6094,567.5625 L456.6094,569.0156 Q456.6094,569.625 456.375,569.8906 Q456.1406,570.1563 455.7656,570.1563 Q455.4219,570.1563 455.2188,569.9531 Q455.0156,569.7656 454.9063,569.25 Q454.8594,568.8906 454.6719,568.7031 Q454.3438,568.3281 453.7344,568.1094 Q453.125,567.8906 452.5,567.8906 Q451.7344,567.8906 451.1016,568.2188 Q450.4688,568.5469 449.9766,569.2969 Q449.4844,570.0469 449.4844,571.0781 L449.4844,572.1719 Q449.4844,573.4063 450.375,574.2266 Q451.2656,575.0469 452.8594,575.0469 Q453.7969,575.0469 454.4531,574.7969 Q454.8438,574.6406 455.2656,574.2031 Q455.5313,573.9375 455.6797,573.8594 Q455.8281,573.7813 456.0313,573.7813 Q456.3594,573.7813 456.6172,574.0391 Q456.875,574.2969 456.875,574.6406 Q456.875,574.9844 456.5313,575.3906 Q456.0313,575.9688 455.2344,576.2969 Q454.1563,576.75 452.8594,576.75 Q451.3438,576.75 450.1406,576.125 Q449.1563,575.625 448.4688,574.5547 Q447.7813,573.4844 447.7813,572.2031 L447.7813,571.0469 Q447.7813,569.7188 448.3984,568.5703 Q449.0156,567.4219 450.1094,566.8047 Q451.2031,566.1875 452.4375,566.1875 Q453.1719,566.1875 453.8203,566.3516 Q454.4688,566.5156 455.0156,566.875 Z "/><text fill="#000000" font-family="sans-serif" font-size="12" lengthAdjust="spacingAndGlyphs" textLength="89" x="472.75" y="575.9102">ScheduledFlight</text><line style="stroke: #A80036; stroke-width: 1.5;" x1="340.5" x2="661.5" y1="587" y2="587"/><line style="stroke: #A80036; stroke-width: 1.5;" x1="340.5" x2="661.5" y1="595" y2="595"/><ellipse cx="350.5" cy="607.418" fill="#84BE84" rx="3" ry="3" style="stroke: #038048; stroke-width: 1.0;"/><text fill="#000000" font-family="sans-serif" font-size="11" lengthAdjust="spacingAndGlyphs" textLength="297" x="359.5" y="610.4189">ScheduledFlight(String, String, String, DateTime, DateTime, int)</text><ellipse cx="350.5" cy="621.2539" fill="#84BE84" rx="3" ry="3" style="stroke: #038048; stroke-width: 1.0;"/><text fill="#000000" font-family="sans-serif" font-size="11" lengthAdjust="spacingAndGlyphs" textLength="160" x="359.5" y="624.2549">ScheduledFlight(ScheduledFlight)</text><ellipse cx="350.5" cy="635.0898" fill="#84BE84" rx="3" ry="3" style="stroke: #038048; stroke-width: 1.0;"/><text fill="#000000" font-family="sans-serif" font-size="11" lengthAdjust="spacingAndGlyphs" textLength="95" x="359.5" y="638.0908">getBonusMiles(): int</text><!--class java.lang.Comparable--><rect fill="#FEFECE" filter="url(#f1x379wlizc0pp)" height="61.8359" id="java.lang.Comparable" style="stroke: #A80036; stroke-width: 1.5;" width="115" x="278.5" y="60"/><ellipse cx="294.4" cy="76" fill="#B4A7E5" rx="11" ry="11" style="stroke: #A80036; stroke-width: 1.0;"/><path d="M295.3531,72.6406 L295.3531,79.2969 L297.0719,79.2969 Q297.6813,79.2969 297.9469,79.5313 Q298.2125,79.7656 298.2125,80.1563 Q298.2125,80.5313 297.9469,80.7656 Q297.6813,81 297.0719,81 L291.9313,81 Q291.3219,81 291.0563,80.7656 Q290.7906,80.5313 290.7906,80.1406 Q290.7906,79.7656 291.0563,79.5313 Q291.3219,79.2969 291.9313,79.2969 L293.65,79.2969 L293.65,72.6406 L291.9313,72.6406 Q291.3219,72.6406 291.0563,72.4063 Q290.7906,72.1719 290.7906,71.7813 Q290.7906,71.4063 291.0563,71.1719 Q291.3219,70.9375 291.9313,70.9375 L297.0719,70.9375 Q297.6813,70.9375 297.9469,71.1719 Q298.2125,71.4063 298.2125,71.7813 Q298.2125,72.1719 297.9469,72.4063 Q297.6813,72.6406 297.0719,72.6406 L295.3531,72.6406 Z "/><text fill="#000000" font-family="sans-serif" font-size="12" font-style="italic" lengthAdjust="spacingAndGlyphs" textLength="70" x="308.6" y="80.9102">Comparable</text><rect fill="#FFFFFF" height="17.0938" style="stroke: #000000; stroke-width: 1.0; stroke-dasharray: 2.0,2.0;" width="9" x="387.5" y="57"/><text fill="#000000" font-family="sans-serif" font-size="12" font-style="italic" lengthAdjust="spacingAndGlyphs" textLength="7" x="388.5" y="70.457">T</text><line style="stroke: #A80036; stroke-width: 1.5;" x1="279.5" x2="392.5" y1="92" y2="92"/><line style="stroke: #A80036; stroke-width: 1.5;" x1="279.5" x2="392.5" y1="100" y2="100"/><ellipse cx="289.5" cy="112.418" fill="#84BE84" rx="3" ry="3" style="stroke: #038048; stroke-width: 1.0;"/><text fill="#000000" font-family="sans-serif" font-size="11" font-style="italic" lengthAdjust="spacingAndGlyphs" textLength="89" x="298.5" y="115.4189">compareTo(T): int</text><!--link FMS.entities.Flight to FMS.entities.Charter--><path d="M228.062,512.024 C216.021,530.377 204.781,547.509 195.516,561.632 " fill="none" id="FMS.entities.Flight-FMS.entities.Charter" style="stroke: #A80036; stroke-width: 1.0;"/><polygon fill="none" points="222.241,508.136,239.064,495.253,233.946,515.816,222.241,508.136" style="stroke: #A80036; stroke-width: 1.0;"/><!--link java.lang.Comparable to FMS.entities.Flight--><path d="M336,142.292 C336,158.752 336,177.958 336,197.872 " fill="none" id="java.lang.Comparable-FMS.entities.Flight" style="stroke: #A80036; stroke-width: 1.0; stroke-dasharray: 7.0,7.0;"/><polygon fill="none" points="329,142.075,336,122.075,343,142.075,329,142.075" style="stroke: #A80036; stroke-width: 1.0;"/><!--link FMS.entities.Flight to FMS.entities.ScheduledFlight--><path d="M444.125,512.308 C454.26,527.756 463.822,542.331 472.11,554.965 " fill="none" id="FMS.entities.Flight-FMS.entities.ScheduledFlight" style="stroke: #A80036; stroke-width: 1.0;"/><polygon fill="none" points="438.054,515.816,432.936,495.253,449.759,508.136,438.054,515.816" style="stroke: #A80036; stroke-width: 1.0;"/><!--
@startuml

    namespace FMS.entities {

        class Charter {
            +Charter(String, String, String, DateTime, DateTime)
            +getBonusMiles(): int
        }

        abstract class Flight {
            +Flight(String, String, String, DateTime, DateTime)
            +Flight(Flight)
            +setFlightID(String): void
            +setDestination(String): void
            +getOrigin(): String
            +setOrigin(String): void
            +getDeparture(): DateTime
            +setDeparture(DateTime): void
            +setArrival(DateTime): void
            {abstract} +getBonusMiles(): int
            +compareTo(Flight): int
            +add(Staff): boolean
            +add(Passenger): boolean
            +readyToBoard(): boolean
            +boardingCompleted(): boolean
            +board(Passenger): boolean
            +getFlightId(): String
            +setVessel(Aircraft): Flight
        }

        class ScheduledFlight {
            +ScheduledFlight(String, String, String, DateTime, DateTime, int)
            +ScheduledFlight(ScheduledFlight)
            +getBonusMiles(): int
        }
    }

    namespace java.lang {
        interface Comparable<T> {
            {abstract} +compareTo(T): int
        }
    }

    FMS.entities.Flight <|- - FMS.entities.Charter
    java.lang.Comparable <|.. FMS.entities.Flight
    FMS.entities.Flight <|- - FMS.entities.ScheduledFlight

@enduml

PlantUML version 1.2018.05(Sat May 05 22:00:17 CEST 2018)
(APACHE source distribution)
Java Runtime: Java(TM) SE Runtime Environment
JVM: Java HotSpot(TM) 64-Bit Server VM
Java Version: 10.0.1+10
Operating System: Windows 10
OS Version: 10.0
Default Encoding: Cp1252
Language: en
Country: US
--></g></svg>