<?xml version="1.0" encoding="UTF-8" standalone="no"?><svg xmlns="http://www.w3.org/2000/svg" xmlns:xlink="http://www.w3.org/1999/xlink" contentScriptType="application/ecmascript" contentStyleType="text/css" height="385px" preserveAspectRatio="none" style="width:332px;height:385px;" version="1.1" viewBox="0 0 332 385" width="332px" zoomAndPan="magnify"><defs><filter height="300%" id="fcm87x564q7bu" width="300%" x="-1" y="-1"><feGaussianBlur result="blurOut" stdDeviation="2.0"/><feColorMatrix in="blurOut" result="blurOut2" type="matrix" values="0 0 0 0 0 0 0 0 0 0 0 0 0 0 0 0 0 0 .4 0"/><feOffset dx="4.0" dy="4.0" in="blurOut2" result="blurOut3"/><feBlend in="SourceGraphic" in2="blurOut3" mode="normal"/></filter></defs><g><!--cluster FMS.entities--><polygon fill="#FFFFFF" filter="url(#fcm87x564q7bu)" points="22,24,116,24,123,47.6094,310,47.6094,310,373,22,373,22,24" style="stroke: #000000; stroke-width: 1.5;"/><line style="stroke: #000000; stroke-width: 1.5;" x1="22" x2="123" y1="47.6094" y2="47.6094"/><text fill="#000000" font-family="sans-serif" font-size="14" font-weight="bold" lengthAdjust="spacingAndGlyphs" textLength="88" x="26" y="40.5332">FMS.entities</text><!--class FMS.entities.Flight--><rect fill="#FEFECE" filter="url(#fcm87x564q7bu)" height="297.0469" id="FMS.entities.Flight" style="stroke: #A80036; stroke-width: 1.5;" width="255" x="38.5" y="60"/><ellipse cx="146.75" cy="76" fill="#A9DCDF" rx="11" ry="11" style="stroke: #A80036; stroke-width: 1.0;"/><path d="M148.9375,77.7656 L144.7969,77.7656 L144.375,78.7969 L144.7969,78.7969 Q145.4063,78.7969 145.6719,79.0313 Q145.9375,79.2656 145.9375,79.6563 Q145.9375,80.0313 145.6719,80.2656 Q145.4063,80.5 144.7969,80.5 L142.5,80.5 Q141.8906,80.5 141.6328,80.2656 Q141.375,80.0313 141.375,79.6406 Q141.375,79.2656 141.6484,79.0234 Q141.9219,78.7813 142.5469,78.7969 L145.2188,72.1406 L144.1094,72.1406 Q143.5,72.1406 143.2344,71.9063 Q142.9688,71.6719 142.9688,71.2813 Q142.9688,70.9063 143.2344,70.6719 Q143.5,70.4375 144.1094,70.4375 L147.7813,70.4375 L151.1719,78.7969 Q151.7656,78.7969 151.9531,78.9375 Q152.3438,79.2031 152.3438,79.6563 Q152.3438,80.0313 152.0859,80.2656 Q151.8281,80.5 151.2188,80.5 L148.9219,80.5 Q148.3125,80.5 148.0469,80.2656 Q147.7813,80.0313 147.7813,79.6406 Q147.7813,79.2656 148.0469,79.0313 Q148.3125,78.7969 148.9219,78.7969 L149.3438,78.7969 L148.9375,77.7656 Z M148.2188,76.0625 L146.8594,72.6875 L145.4844,76.0625 L148.2188,76.0625 Z "/><text fill="#000000" font-family="sans-serif" font-size="12" font-style="italic" lengthAdjust="spacingAndGlyphs" textLength="30" x="167.25" y="80.9102">Flight</text><line style="stroke: #A80036; stroke-width: 1.5;" x1="39.5" x2="292.5" y1="92" y2="92"/><line style="stroke: #A80036; stroke-width: 1.5;" x1="39.5" x2="292.5" y1="100" y2="100"/><ellipse cx="49.5" cy="112.418" fill="#84BE84" rx="3" ry="3" style="stroke: #038048; stroke-width: 1.0;"/><text fill="#000000" font-family="sans-serif" font-size="11" lengthAdjust="spacingAndGlyphs" textLength="229" x="58.5" y="115.4189">Flight(String, String, String, DateTime, DateTime)</text><ellipse cx="49.5" cy="126.2539" fill="#84BE84" rx="3" ry="3" style="stroke: #038048; stroke-width: 1.0;"/><text fill="#000000" font-family="sans-serif" font-size="11" lengthAdjust="spacingAndGlyphs" textLength="58" x="58.5" y="129.2549">Flight(Flight)</text><ellipse cx="49.5" cy="140.0898" fill="#84BE84" rx="3" ry="3" style="stroke: #038048; stroke-width: 1.0;"/><text fill="#000000" font-family="sans-serif" font-size="11" lengthAdjust="spacingAndGlyphs" textLength="111" x="58.5" y="143.0908">setFlightID(String): void</text><ellipse cx="49.5" cy="153.9258" fill="#84BE84" rx="3" ry="3" style="stroke: #038048; stroke-width: 1.0;"/><text fill="#000000" font-family="sans-serif" font-size="11" lengthAdjust="spacingAndGlyphs" textLength="130" x="58.5" y="156.9268">setDestination(String): void</text><ellipse cx="49.5" cy="167.7617" fill="#84BE84" rx="3" ry="3" style="stroke: #038048; stroke-width: 1.0;"/><text fill="#000000" font-family="sans-serif" font-size="11" lengthAdjust="spacingAndGlyphs" textLength="85" x="58.5" y="170.7627">getOrigin(): String</text><ellipse cx="49.5" cy="181.5977" fill="#84BE84" rx="3" ry="3" style="stroke: #038048; stroke-width: 1.0;"/><text fill="#000000" font-family="sans-serif" font-size="11" lengthAdjust="spacingAndGlyphs" textLength="105" x="58.5" y="184.5986">setOrigin(String): void</text><ellipse cx="49.5" cy="195.4336" fill="#84BE84" rx="3" ry="3" style="stroke: #038048; stroke-width: 1.0;"/><text fill="#000000" font-family="sans-serif" font-size="11" lengthAdjust="spacingAndGlyphs" textLength="121" x="58.5" y="198.4346">getDeparture(): DateTime</text><ellipse cx="49.5" cy="209.2695" fill="#84BE84" rx="3" ry="3" style="stroke: #038048; stroke-width: 1.0;"/><text fill="#000000" font-family="sans-serif" font-size="11" lengthAdjust="spacingAndGlyphs" textLength="141" x="58.5" y="212.2705">setDeparture(DateTime): void</text><ellipse cx="49.5" cy="223.1055" fill="#84BE84" rx="3" ry="3" style="stroke: #038048; stroke-width: 1.0;"/><text fill="#000000" font-family="sans-serif" font-size="11" lengthAdjust="spacingAndGlyphs" textLength="125" x="58.5" y="226.1064">setArrival(DateTime): void</text><ellipse cx="49.5" cy="236.9414" fill="#84BE84" rx="3" ry="3" style="stroke: #038048; stroke-width: 1.0;"/><text fill="#000000" font-family="sans-serif" font-size="11" font-style="italic" lengthAdjust="spacingAndGlyphs" textLength="99" x="58.5" y="239.9424">getBonusMiles(): int</text><ellipse cx="49.5" cy="250.7773" fill="#84BE84" rx="3" ry="3" style="stroke: #038048; stroke-width: 1.0;"/><text fill="#000000" font-family="sans-serif" font-size="11" lengthAdjust="spacingAndGlyphs" textLength="104" x="58.5" y="253.7783">compareTo(Flight): int</text><ellipse cx="49.5" cy="264.6133" fill="#84BE84" rx="3" ry="3" style="stroke: #038048; stroke-width: 1.0;"/><text fill="#000000" font-family="sans-serif" font-size="11" lengthAdjust="spacingAndGlyphs" textLength="94" x="58.5" y="267.6143">add(Staff): boolean</text><ellipse cx="49.5" cy="278.4492" fill="#84BE84" rx="3" ry="3" style="stroke: #038048; stroke-width: 1.0;"/><text fill="#000000" font-family="sans-serif" font-size="11" lengthAdjust="spacingAndGlyphs" textLength="122" x="58.5" y="281.4502">add(Passenger): boolean</text><ellipse cx="49.5" cy="292.2852" fill="#84BE84" rx="3" ry="3" style="stroke: #038048; stroke-width: 1.0;"/><text fill="#000000" font-family="sans-serif" font-size="11" lengthAdjust="spacingAndGlyphs" textLength="121" x="58.5" y="295.2861">readyToBoard(): boolean</text><ellipse cx="49.5" cy="306.1211" fill="#84BE84" rx="3" ry="3" style="stroke: #038048; stroke-width: 1.0;"/><text fill="#000000" font-family="sans-serif" font-size="11" lengthAdjust="spacingAndGlyphs" textLength="144" x="58.5" y="309.1221">boardingCompleted(): boolean</text><ellipse cx="49.5" cy="319.957" fill="#84BE84" rx="3" ry="3" style="stroke: #038048; stroke-width: 1.0;"/><text fill="#000000" font-family="sans-serif" font-size="11" lengthAdjust="spacingAndGlyphs" textLength="132" x="58.5" y="322.958">board(Passenger): boolean</text><ellipse cx="49.5" cy="333.793" fill="#84BE84" rx="3" ry="3" style="stroke: #038048; stroke-width: 1.0;"/><text fill="#000000" font-family="sans-serif" font-size="11" lengthAdjust="spacingAndGlyphs" textLength="90" x="58.5" y="336.7939">getFlightId(): String</text><ellipse cx="49.5" cy="347.6289" fill="#84BE84" rx="3" ry="3" style="stroke: #038048; stroke-width: 1.0;"/><text fill="#000000" font-family="sans-serif" font-size="11" lengthAdjust="spacingAndGlyphs" textLength="125" x="58.5" y="350.6299">setVessel(Aircraft): Flight</text><!--
@startuml

    namespace FMS.entities {
        abstract class Flight {
            +Flight(String, String, String, DateTime, DateTime)
            +Flight(Flight)
            +setFlightID(String): void
            +setDestination(String): void
            +getOrigin(): String
            +setOrigin(String): void
            +getDeparture(): DateTime
            +setDeparture(DateTime): void
            +setArrival(DateTime): void
            {abstract} +getBonusMiles(): int
            +compareTo(Flight): int
            +add(Staff): boolean
            +add(Passenger): boolean
            +readyToBoard(): boolean
            +boardingCompleted(): boolean
            +board(Passenger): boolean
            +getFlightId(): String
            +setVessel(Aircraft): Flight
        }
    }

@enduml

PlantUML version 1.2018.05(Sat May 05 22:00:17 CEST 2018)
(APACHE source distribution)
Java Runtime: Java(TM) SE Runtime Environment
JVM: Java HotSpot(TM) 64-Bit Server VM
Java Version: 10.0.1+10
Operating System: Windows 10
OS Version: 10.0
Default Encoding: Cp1252
Language: en
Country: US
--></g></svg>