<?xml version="1.0" encoding="UTF-8" standalone="no"?><svg xmlns="http://www.w3.org/2000/svg" xmlns:xlink="http://www.w3.org/1999/xlink" contentScriptType="application/ecmascript" contentStyleType="text/css" height="178px" preserveAspectRatio="none" style="width:264px;height:178px;" version="1.1" viewBox="0 0 264 178" width="264px" zoomAndPan="magnify"><defs><filter height="300%" id="f1hio2s9dzfvc5" width="300%" x="-1" y="-1"><feGaussianBlur result="blurOut" stdDeviation="2.0"/><feColorMatrix in="blurOut" result="blurOut2" type="matrix" values="0 0 0 0 0 0 0 0 0 0 0 0 0 0 0 0 0 0 .4 0"/><feOffset dx="4.0" dy="4.0" in="blurOut2" result="blurOut3"/><feBlend in="SourceGraphic" in2="blurOut3" mode="normal"/></filter></defs><g><!--cluster FMS.provided--><polygon fill="#FFFFFF" filter="url(#f1hio2s9dzfvc5)" points="22,24,127,24,134,47.6094,242,47.6094,242,166,22,166,22,24" style="stroke: #000000; stroke-width: 1.5;"/><line style="stroke: #000000; stroke-width: 1.5;" x1="22" x2="134" y1="47.6094" y2="47.6094"/><text fill="#000000" font-family="sans-serif" font-size="14" font-weight="bold" lengthAdjust="spacingAndGlyphs" textLength="99" x="26" y="40.5332">FMS.provided</text><!--class FMS.provided.Staff--><rect fill="#FEFECE" filter="url(#f1hio2s9dzfvc5)" height="89.5078" id="FMS.provided.Staff" style="stroke: #A80036; stroke-width: 1.5;" width="188" x="38" y="60"/><ellipse cx="115.75" cy="76" fill="#ADD1B2" rx="11" ry="11" style="stroke: #A80036; stroke-width: 1.0;"/><path d="M118.5156,71.875 Q118.6719,71.6563 118.8594,71.5469 Q119.0469,71.4375 119.2656,71.4375 Q119.6406,71.4375 119.875,71.6953 Q120.1094,71.9531 120.1094,72.5625 L120.1094,74.0156 Q120.1094,74.625 119.875,74.8906 Q119.6406,75.1563 119.2656,75.1563 Q118.9219,75.1563 118.7188,74.9531 Q118.5156,74.7656 118.4063,74.25 Q118.3594,73.8906 118.1719,73.7031 Q117.8438,73.3281 117.2344,73.1094 Q116.625,72.8906 116,72.8906 Q115.2344,72.8906 114.6016,73.2188 Q113.9688,73.5469 113.4766,74.2969 Q112.9844,75.0469 112.9844,76.0781 L112.9844,77.1719 Q112.9844,78.4063 113.875,79.2266 Q114.7656,80.0469 116.3594,80.0469 Q117.2969,80.0469 117.9531,79.7969 Q118.3438,79.6406 118.7656,79.2031 Q119.0313,78.9375 119.1797,78.8594 Q119.3281,78.7813 119.5313,78.7813 Q119.8594,78.7813 120.1172,79.0391 Q120.375,79.2969 120.375,79.6406 Q120.375,79.9844 120.0313,80.3906 Q119.5313,80.9688 118.7344,81.2969 Q117.6563,81.75 116.3594,81.75 Q114.8438,81.75 113.6406,81.125 Q112.6563,80.625 111.9688,79.5547 Q111.2813,78.4844 111.2813,77.2031 L111.2813,76.0469 Q111.2813,74.7188 111.8984,73.5703 Q112.5156,72.4219 113.6094,71.8047 Q114.7031,71.1875 115.9375,71.1875 Q116.6719,71.1875 117.3203,71.3516 Q117.9688,71.5156 118.5156,71.875 Z "/><text fill="#000000" font-family="sans-serif" font-size="12" lengthAdjust="spacingAndGlyphs" textLength="24" x="136.25" y="80.9102">Staff</text><line style="stroke: #A80036; stroke-width: 1.5;" x1="39" x2="225" y1="92" y2="92"/><line style="stroke: #A80036; stroke-width: 1.5;" x1="39" x2="225" y1="100" y2="100"/><ellipse cx="49" cy="112.418" fill="#84BE84" rx="3" ry="3" style="stroke: #038048; stroke-width: 1.0;"/><text fill="#000000" font-family="sans-serif" font-size="11" lengthAdjust="spacingAndGlyphs" textLength="56" x="58" y="115.4189">Staff(Staff)</text><ellipse cx="49" cy="126.2539" fill="#84BE84" rx="3" ry="3" style="stroke: #038048; stroke-width: 1.0;"/><text fill="#000000" font-family="sans-serif" font-size="11" lengthAdjust="spacingAndGlyphs" textLength="162" x="58" y="129.2549">Staff(String, String, String, String)</text><ellipse cx="49" cy="140.0898" fill="#84BE84" rx="3" ry="3" style="stroke: #038048; stroke-width: 1.0;"/><text fill="#000000" font-family="sans-serif" font-size="11" lengthAdjust="spacingAndGlyphs" textLength="100" x="58" y="143.0908">Staff(Person, String)</text><!--
@startuml

    namespace FMS.provided {
        class Staff {
            +Staff(Staff)
            +Staff(String, String, String, String)
            +Staff(Person, String)
        }
    }

@enduml

PlantUML version 1.2018.05(Sat May 05 22:00:17 CEST 2018)
(APACHE source distribution)
Java Runtime: Java(TM) SE Runtime Environment
JVM: Java HotSpot(TM) 64-Bit Server VM
Java Version: 10.0.1+10
Operating System: Windows 10
OS Version: 10.0
Default Encoding: Cp1252
Language: en
Country: US
--></g></svg>