<?xml version="1.0" encoding="UTF-8" standalone="no"?><svg xmlns="http://www.w3.org/2000/svg" xmlns:xlink="http://www.w3.org/1999/xlink" contentScriptType="application/ecmascript" contentStyleType="text/css" height="164px" preserveAspectRatio="none" style="width:192px;height:164px;" version="1.1" viewBox="0 0 192 164" width="192px" zoomAndPan="magnify"><defs><filter height="300%" id="f1dbbz28a96rvi" width="300%" x="-1" y="-1"><feGaussianBlur result="blurOut" stdDeviation="2.0"/><feColorMatrix in="blurOut" result="blurOut2" type="matrix" values="0 0 0 0 0 0 0 0 0 0 0 0 0 0 0 0 0 0 .4 0"/><feOffset dx="4.0" dy="4.0" in="blurOut2" result="blurOut3"/><feBlend in="SourceGraphic" in2="blurOut3" mode="normal"/></filter></defs><g><!--cluster FMS.app--><polygon fill="#FFFFFF" filter="url(#f1dbbz28a96rvi)" points="22,24,89,24,96,47.6094,170,47.6094,170,152,22,152,22,24" style="stroke: #000000; stroke-width: 1.5;"/><line style="stroke: #000000; stroke-width: 1.5;" x1="22" x2="96" y1="47.6094" y2="47.6094"/><text fill="#000000" font-family="sans-serif" font-size="14" font-weight="bold" lengthAdjust="spacingAndGlyphs" textLength="61" x="26" y="40.5332">FMS.app</text><!--class FMS.app.Main--><rect fill="#FEFECE" filter="url(#f1dbbz28a96rvi)" height="75.6719" id="FMS.app.Main" style="stroke: #A80036; stroke-width: 1.5;" width="116" x="38" y="60"/><ellipse cx="79.1" cy="76" fill="#ADD1B2" rx="11" ry="11" style="stroke: #A80036; stroke-width: 1.0;"/><path d="M81.8656,71.875 Q82.0219,71.6563 82.2094,71.5469 Q82.3969,71.4375 82.6156,71.4375 Q82.9906,71.4375 83.225,71.6953 Q83.4594,71.9531 83.4594,72.5625 L83.4594,74.0156 Q83.4594,74.625 83.225,74.8906 Q82.9906,75.1563 82.6156,75.1563 Q82.2719,75.1563 82.0688,74.9531 Q81.8656,74.7656 81.7563,74.25 Q81.7094,73.8906 81.5219,73.7031 Q81.1938,73.3281 80.5844,73.1094 Q79.975,72.8906 79.35,72.8906 Q78.5844,72.8906 77.9516,73.2188 Q77.3188,73.5469 76.8266,74.2969 Q76.3344,75.0469 76.3344,76.0781 L76.3344,77.1719 Q76.3344,78.4063 77.225,79.2266 Q78.1156,80.0469 79.7094,80.0469 Q80.6469,80.0469 81.3031,79.7969 Q81.6938,79.6406 82.1156,79.2031 Q82.3813,78.9375 82.5297,78.8594 Q82.6781,78.7813 82.8813,78.7813 Q83.2094,78.7813 83.4672,79.0391 Q83.725,79.2969 83.725,79.6406 Q83.725,79.9844 83.3813,80.3906 Q82.8813,80.9688 82.0844,81.2969 Q81.0063,81.75 79.7094,81.75 Q78.1938,81.75 76.9906,81.125 Q76.0063,80.625 75.3188,79.5547 Q74.6313,78.4844 74.6313,77.2031 L74.6313,76.0469 Q74.6313,74.7188 75.2484,73.5703 Q75.8656,72.4219 76.9594,71.8047 Q78.0531,71.1875 79.2875,71.1875 Q80.0219,71.1875 80.6703,71.3516 Q81.3188,71.5156 81.8656,71.875 Z "/><text fill="#000000" font-family="sans-serif" font-size="12" lengthAdjust="spacingAndGlyphs" textLength="26" x="98.9" y="80.9102">Main</text><line style="stroke: #A80036; stroke-width: 1.5;" x1="39" x2="153" y1="92" y2="92"/><line style="stroke: #A80036; stroke-width: 1.5;" x1="39" x2="153" y1="100" y2="100"/><ellipse cx="49" cy="112.418" fill="#84BE84" rx="3" ry="3" style="stroke: #038048; stroke-width: 1.0;"/><text fill="#000000" font-family="sans-serif" font-size="11" lengthAdjust="spacingAndGlyphs" textLength="30" x="58" y="115.4189">Main()</text><ellipse cx="49" cy="126.2539" fill="#84BE84" rx="3" ry="3" style="stroke: #038048; stroke-width: 1.0;"/><text fill="#000000" font-family="sans-serif" font-size="11" lengthAdjust="spacingAndGlyphs" text-decoration="underline" textLength="90" x="58" y="129.2549">main(String[]): void</text><line style="stroke: #000000; stroke-width: 1.0;" x1="58" x2="148" y1="131.2549" y2="131.2549"/><!--
@startuml

    namespace FMS.app {
        class Main {
            +Main()
            {static} +main(String[]): void
        }
    }

@enduml

PlantUML version 1.2018.05(Sat May 05 22:00:17 CEST 2018)
(APACHE source distribution)
Java Runtime: Java(TM) SE Runtime Environment
JVM: Java HotSpot(TM) 64-Bit Server VM
Java Version: 10.0.1+10
Operating System: Windows 10
OS Version: 10.0
Default Encoding: Cp1252
Language: en
Country: US
--></g></svg>