<?xml version="1.0" encoding="UTF-8" standalone="no"?><svg xmlns="http://www.w3.org/2000/svg" xmlns:xlink="http://www.w3.org/1999/xlink" contentScriptType="application/ecmascript" contentStyleType="text/css" height="164px" preserveAspectRatio="none" style="width:342px;height:164px;" version="1.1" viewBox="0 0 342 164" width="342px" zoomAndPan="magnify"><defs><filter height="300%" id="fxv8k2xjtf9hl" width="300%" x="-1" y="-1"><feGaussianBlur result="blurOut" stdDeviation="2.0"/><feColorMatrix in="blurOut" result="blurOut2" type="matrix" values="0 0 0 0 0 0 0 0 0 0 0 0 0 0 0 0 0 0 .4 0"/><feOffset dx="4.0" dy="4.0" in="blurOut2" result="blurOut3"/><feBlend in="SourceGraphic" in2="blurOut3" mode="normal"/></filter></defs><g><!--cluster FMS.entities--><polygon fill="#FFFFFF" filter="url(#fxv8k2xjtf9hl)" points="22,24,116,24,123,47.6094,320,47.6094,320,152,22,152,22,24" style="stroke: #000000; stroke-width: 1.5;"/><line style="stroke: #000000; stroke-width: 1.5;" x1="22" x2="123" y1="47.6094" y2="47.6094"/><text fill="#000000" font-family="sans-serif" font-size="14" font-weight="bold" lengthAdjust="spacingAndGlyphs" textLength="88" x="26" y="40.5332">FMS.entities</text><!--class FMS.entities.Charter--><rect fill="#FEFECE" filter="url(#fxv8k2xjtf9hl)" height="75.6719" id="FMS.entities.Charter" style="stroke: #A80036; stroke-width: 1.5;" width="266" x="38" y="60"/><ellipse cx="146.25" cy="76" fill="#ADD1B2" rx="11" ry="11" style="stroke: #A80036; stroke-width: 1.0;"/><path d="M149.0156,71.875 Q149.1719,71.6563 149.3594,71.5469 Q149.5469,71.4375 149.7656,71.4375 Q150.1406,71.4375 150.375,71.6953 Q150.6094,71.9531 150.6094,72.5625 L150.6094,74.0156 Q150.6094,74.625 150.375,74.8906 Q150.1406,75.1563 149.7656,75.1563 Q149.4219,75.1563 149.2188,74.9531 Q149.0156,74.7656 148.9063,74.25 Q148.8594,73.8906 148.6719,73.7031 Q148.3438,73.3281 147.7344,73.1094 Q147.125,72.8906 146.5,72.8906 Q145.7344,72.8906 145.1016,73.2188 Q144.4688,73.5469 143.9766,74.2969 Q143.4844,75.0469 143.4844,76.0781 L143.4844,77.1719 Q143.4844,78.4063 144.375,79.2266 Q145.2656,80.0469 146.8594,80.0469 Q147.7969,80.0469 148.4531,79.7969 Q148.8438,79.6406 149.2656,79.2031 Q149.5313,78.9375 149.6797,78.8594 Q149.8281,78.7813 150.0313,78.7813 Q150.3594,78.7813 150.6172,79.0391 Q150.875,79.2969 150.875,79.6406 Q150.875,79.9844 150.5313,80.3906 Q150.0313,80.9688 149.2344,81.2969 Q148.1563,81.75 146.8594,81.75 Q145.3438,81.75 144.1406,81.125 Q143.1563,80.625 142.4688,79.5547 Q141.7813,78.4844 141.7813,77.2031 L141.7813,76.0469 Q141.7813,74.7188 142.3984,73.5703 Q143.0156,72.4219 144.1094,71.8047 Q145.2031,71.1875 146.4375,71.1875 Q147.1719,71.1875 147.8203,71.3516 Q148.4688,71.5156 149.0156,71.875 Z "/><text fill="#000000" font-family="sans-serif" font-size="12" lengthAdjust="spacingAndGlyphs" textLength="41" x="166.75" y="80.9102">Charter</text><line style="stroke: #A80036; stroke-width: 1.5;" x1="39" x2="303" y1="92" y2="92"/><line style="stroke: #A80036; stroke-width: 1.5;" x1="39" x2="303" y1="100" y2="100"/><ellipse cx="49" cy="112.418" fill="#84BE84" rx="3" ry="3" style="stroke: #038048; stroke-width: 1.0;"/><text fill="#000000" font-family="sans-serif" font-size="11" lengthAdjust="spacingAndGlyphs" textLength="240" x="58" y="115.4189">Charter(String, String, String, DateTime, DateTime)</text><ellipse cx="49" cy="126.2539" fill="#84BE84" rx="3" ry="3" style="stroke: #038048; stroke-width: 1.0;"/><text fill="#000000" font-family="sans-serif" font-size="11" lengthAdjust="spacingAndGlyphs" textLength="95" x="58" y="129.2549">getBonusMiles(): int</text><!--
@startuml

    namespace FMS.entities {
        class Charter {
            +Charter(String, String, String, DateTime, DateTime)
            +getBonusMiles(): int
        }
    }

@enduml

PlantUML version 1.2018.05(Sat May 05 22:00:17 CEST 2018)
(APACHE source distribution)
Java Runtime: Java(TM) SE Runtime Environment
JVM: Java HotSpot(TM) 64-Bit Server VM
Java Version: 10.0.1+10
Operating System: Windows 10
OS Version: 10.0
Default Encoding: Cp1252
Language: en
Country: US
--></g></svg>