<?xml version="1.0" encoding="UTF-8" standalone="no"?><svg xmlns="http://www.w3.org/2000/svg" xmlns:xlink="http://www.w3.org/1999/xlink" contentScriptType="application/ecmascript" contentStyleType="text/css" height="178px" preserveAspectRatio="none" style="width:400px;height:178px;" version="1.1" viewBox="0 0 400 178" width="400px" zoomAndPan="magnify"><defs><filter height="300%" id="fne2efwb8dn87" width="300%" x="-1" y="-1"><feGaussianBlur result="blurOut" stdDeviation="2.0"/><feColorMatrix in="blurOut" result="blurOut2" type="matrix" values="0 0 0 0 0 0 0 0 0 0 0 0 0 0 0 0 0 0 .4 0"/><feOffset dx="4.0" dy="4.0" in="blurOut2" result="blurOut3"/><feBlend in="SourceGraphic" in2="blurOut3" mode="normal"/></filter></defs><g><!--cluster FMS.entities--><polygon fill="#FFFFFF" filter="url(#fne2efwb8dn87)" points="22,24,116,24,123,47.6094,378,47.6094,378,166,22,166,22,24" style="stroke: #000000; stroke-width: 1.5;"/><line style="stroke: #000000; stroke-width: 1.5;" x1="22" x2="123" y1="47.6094" y2="47.6094"/><text fill="#000000" font-family="sans-serif" font-size="14" font-weight="bold" lengthAdjust="spacingAndGlyphs" textLength="88" x="26" y="40.5332">FMS.entities</text><!--class FMS.entities.ScheduledFlight--><rect fill="#FEFECE" filter="url(#fne2efwb8dn87)" height="89.5078" id="FMS.entities.ScheduledFlight" style="stroke: #A80036; stroke-width: 1.5;" width="323" x="38.5" y="60"/><ellipse cx="151.25" cy="76" fill="#ADD1B2" rx="11" ry="11" style="stroke: #A80036; stroke-width: 1.0;"/><path d="M154.0156,71.875 Q154.1719,71.6563 154.3594,71.5469 Q154.5469,71.4375 154.7656,71.4375 Q155.1406,71.4375 155.375,71.6953 Q155.6094,71.9531 155.6094,72.5625 L155.6094,74.0156 Q155.6094,74.625 155.375,74.8906 Q155.1406,75.1563 154.7656,75.1563 Q154.4219,75.1563 154.2188,74.9531 Q154.0156,74.7656 153.9063,74.25 Q153.8594,73.8906 153.6719,73.7031 Q153.3438,73.3281 152.7344,73.1094 Q152.125,72.8906 151.5,72.8906 Q150.7344,72.8906 150.1016,73.2188 Q149.4688,73.5469 148.9766,74.2969 Q148.4844,75.0469 148.4844,76.0781 L148.4844,77.1719 Q148.4844,78.4063 149.375,79.2266 Q150.2656,80.0469 151.8594,80.0469 Q152.7969,80.0469 153.4531,79.7969 Q153.8438,79.6406 154.2656,79.2031 Q154.5313,78.9375 154.6797,78.8594 Q154.8281,78.7813 155.0313,78.7813 Q155.3594,78.7813 155.6172,79.0391 Q155.875,79.2969 155.875,79.6406 Q155.875,79.9844 155.5313,80.3906 Q155.0313,80.9688 154.2344,81.2969 Q153.1563,81.75 151.8594,81.75 Q150.3438,81.75 149.1406,81.125 Q148.1563,80.625 147.4688,79.5547 Q146.7813,78.4844 146.7813,77.2031 L146.7813,76.0469 Q146.7813,74.7188 147.3984,73.5703 Q148.0156,72.4219 149.1094,71.8047 Q150.2031,71.1875 151.4375,71.1875 Q152.1719,71.1875 152.8203,71.3516 Q153.4688,71.5156 154.0156,71.875 Z "/><text fill="#000000" font-family="sans-serif" font-size="12" lengthAdjust="spacingAndGlyphs" textLength="89" x="171.75" y="80.9102">ScheduledFlight</text><line style="stroke: #A80036; stroke-width: 1.5;" x1="39.5" x2="360.5" y1="92" y2="92"/><line style="stroke: #A80036; stroke-width: 1.5;" x1="39.5" x2="360.5" y1="100" y2="100"/><ellipse cx="49.5" cy="112.418" fill="#84BE84" rx="3" ry="3" style="stroke: #038048; stroke-width: 1.0;"/><text fill="#000000" font-family="sans-serif" font-size="11" lengthAdjust="spacingAndGlyphs" textLength="297" x="58.5" y="115.4189">ScheduledFlight(String, String, String, DateTime, DateTime, int)</text><ellipse cx="49.5" cy="126.2539" fill="#84BE84" rx="3" ry="3" style="stroke: #038048; stroke-width: 1.0;"/><text fill="#000000" font-family="sans-serif" font-size="11" lengthAdjust="spacingAndGlyphs" textLength="160" x="58.5" y="129.2549">ScheduledFlight(ScheduledFlight)</text><ellipse cx="49.5" cy="140.0898" fill="#84BE84" rx="3" ry="3" style="stroke: #038048; stroke-width: 1.0;"/><text fill="#000000" font-family="sans-serif" font-size="11" lengthAdjust="spacingAndGlyphs" textLength="95" x="58.5" y="143.0908">getBonusMiles(): int</text><!--
@startuml

    namespace FMS.entities {
        class ScheduledFlight {
            +ScheduledFlight(String, String, String, DateTime, DateTime, int)
            +ScheduledFlight(ScheduledFlight)
            +getBonusMiles(): int
        }
    }

@enduml

PlantUML version 1.2018.05(Sat May 05 22:00:17 CEST 2018)
(APACHE source distribution)
Java Runtime: Java(TM) SE Runtime Environment
JVM: Java HotSpot(TM) 64-Bit Server VM
Java Version: 10.0.1+10
Operating System: Windows 10
OS Version: 10.0
Default Encoding: Cp1252
Language: en
Country: US
--></g></svg>