<?xml version="1.0" encoding="UTF-8" standalone="no"?><svg xmlns="http://www.w3.org/2000/svg" xmlns:xlink="http://www.w3.org/1999/xlink" contentScriptType="application/ecmascript" contentStyleType="text/css" height="205px" preserveAspectRatio="none" style="width:258px;height:205px;" version="1.1" viewBox="0 0 258 205" width="258px" zoomAndPan="magnify"><defs><filter height="300%" id="f14tld1zmaoluf" width="300%" x="-1" y="-1"><feGaussianBlur result="blurOut" stdDeviation="2.0"/><feColorMatrix in="blurOut" result="blurOut2" type="matrix" values="0 0 0 0 0 0 0 0 0 0 0 0 0 0 0 0 0 0 .4 0"/><feOffset dx="4.0" dy="4.0" in="blurOut2" result="blurOut3"/><feBlend in="SourceGraphic" in2="blurOut3" mode="normal"/></filter></defs><g><!--cluster FMS.provided--><polygon fill="#FFFFFF" filter="url(#f14tld1zmaoluf)" points="22,24,127,24,134,47.6094,236,47.6094,236,193,22,193,22,24" style="stroke: #000000; stroke-width: 1.5;"/><line style="stroke: #000000; stroke-width: 1.5;" x1="22" x2="134" y1="47.6094" y2="47.6094"/><text fill="#000000" font-family="sans-serif" font-size="14" font-weight="bold" lengthAdjust="spacingAndGlyphs" textLength="99" x="26" y="40.5332">FMS.provided</text><!--class FMS.provided.Passenger--><rect fill="#FEFECE" filter="url(#f14tld1zmaoluf)" height="117.1797" id="FMS.provided.Passenger" style="stroke: #A80036; stroke-width: 1.5;" width="182" x="38" y="60"/><ellipse cx="94.25" cy="76" fill="#ADD1B2" rx="11" ry="11" style="stroke: #A80036; stroke-width: 1.0;"/><path d="M97.0156,71.875 Q97.1719,71.6563 97.3594,71.5469 Q97.5469,71.4375 97.7656,71.4375 Q98.1406,71.4375 98.375,71.6953 Q98.6094,71.9531 98.6094,72.5625 L98.6094,74.0156 Q98.6094,74.625 98.375,74.8906 Q98.1406,75.1563 97.7656,75.1563 Q97.4219,75.1563 97.2188,74.9531 Q97.0156,74.7656 96.9063,74.25 Q96.8594,73.8906 96.6719,73.7031 Q96.3438,73.3281 95.7344,73.1094 Q95.125,72.8906 94.5,72.8906 Q93.7344,72.8906 93.1016,73.2188 Q92.4688,73.5469 91.9766,74.2969 Q91.4844,75.0469 91.4844,76.0781 L91.4844,77.1719 Q91.4844,78.4063 92.375,79.2266 Q93.2656,80.0469 94.8594,80.0469 Q95.7969,80.0469 96.4531,79.7969 Q96.8438,79.6406 97.2656,79.2031 Q97.5313,78.9375 97.6797,78.8594 Q97.8281,78.7813 98.0313,78.7813 Q98.3594,78.7813 98.6172,79.0391 Q98.875,79.2969 98.875,79.6406 Q98.875,79.9844 98.5313,80.3906 Q98.0313,80.9688 97.2344,81.2969 Q96.1563,81.75 94.8594,81.75 Q93.3438,81.75 92.1406,81.125 Q91.1563,80.625 90.4688,79.5547 Q89.7813,78.4844 89.7813,77.2031 L89.7813,76.0469 Q89.7813,74.7188 90.3984,73.5703 Q91.0156,72.4219 92.1094,71.8047 Q93.2031,71.1875 94.4375,71.1875 Q95.1719,71.1875 95.8203,71.3516 Q96.4688,71.5156 97.0156,71.875 Z "/><text fill="#000000" font-family="sans-serif" font-size="12" lengthAdjust="spacingAndGlyphs" textLength="61" x="114.75" y="80.9102">Passenger</text><line style="stroke: #A80036; stroke-width: 1.5;" x1="39" x2="219" y1="92" y2="92"/><line style="stroke: #A80036; stroke-width: 1.5;" x1="39" x2="219" y1="100" y2="100"/><ellipse cx="49" cy="112.418" fill="#84BE84" rx="3" ry="3" style="stroke: #038048; stroke-width: 1.0;"/><text fill="#000000" font-family="sans-serif" font-size="11" lengthAdjust="spacingAndGlyphs" textLength="156" x="58" y="115.4189">Passenger(String, String, String)</text><ellipse cx="49" cy="126.2539" fill="#84BE84" rx="3" ry="3" style="stroke: #038048; stroke-width: 1.0;"/><text fill="#000000" font-family="sans-serif" font-size="11" lengthAdjust="spacingAndGlyphs" textLength="112" x="58" y="129.2549">Passenger(Passenger)</text><ellipse cx="49" cy="140.0898" fill="#84BE84" rx="3" ry="3" style="stroke: #038048; stroke-width: 1.0;"/><text fill="#000000" font-family="sans-serif" font-size="11" lengthAdjust="spacingAndGlyphs" textLength="94" x="58" y="143.0908">Passenger(Person)</text><ellipse cx="49" cy="153.9258" fill="#84BE84" rx="3" ry="3" style="stroke: #038048; stroke-width: 1.0;"/><text fill="#000000" font-family="sans-serif" font-size="11" lengthAdjust="spacingAndGlyphs" textLength="115" x="58" y="156.9268">setBoarded(Flight): void</text><ellipse cx="49" cy="167.7617" fill="#84BE84" rx="3" ry="3" style="stroke: #038048; stroke-width: 1.0;"/><text fill="#000000" font-family="sans-serif" font-size="11" lengthAdjust="spacingAndGlyphs" textLength="95" x="58" y="170.7627">getBoarded(): Flight</text><!--
@startuml

    namespace FMS.provided {
        class Passenger {
            +Passenger(String, String, String)
            +Passenger(Passenger)
            +Passenger(Person)
            +setBoarded(Flight): void
            +getBoarded(): Flight
        }
    }

@enduml

PlantUML version 1.2018.05(Sat May 05 22:00:17 CEST 2018)
(APACHE source distribution)
Java Runtime: Java(TM) SE Runtime Environment
JVM: Java HotSpot(TM) 64-Bit Server VM
Java Version: 10.0.1+10
Operating System: Windows 10
OS Version: 10.0
Default Encoding: Cp1252
Language: en
Country: US
--></g></svg>